<svg xmlns="http://www.w3.org/2000/svg">
  <symbol id="logo" viewBox="0 0 317 120" fill="none">
    <path d="M98.1353 70.459C95.8364 78.8222 90.857 86.1993 83.9615 91.4578C77.0661 96.7162 68.6358 99.5651 59.9652 99.5672C57.4382 99.5614 54.9171 99.3226 52.4339 98.8538C52.3802 98.8446 52.325 98.855 52.2783 98.8831C52.2316 98.9111 52.1964 98.9549 52.1792 99.0066C52.162 99.0583 52.1638 99.1145 52.1843 99.165C52.2049 99.2154 52.2428 99.2569 52.2912 99.2818C58.2458 101.734 64.6232 102.994 71.0625 102.992C75.3139 103.008 79.5441 102.392 83.6147 101.165C86.7995 98.2425 89.5132 94.8444 91.6595 91.0916C95.3299 84.7835 97.5426 77.7337 98.1353 70.459Z" fill="#00B7CE"/>
    <path d="M85.1837 103.62C74.6855 112.951 61.4772 115.234 51.0931 115.234C45.0526 115.215 39.0334 114.516 33.1491 113.151C32.8924 113.151 32.7498 113.436 33.0065 113.579C41.3613 117.815 50.5987 120.015 59.9652 120C75.2779 120.017 90.0159 114.168 101.152 103.655C112.288 93.141 118.977 78.7606 119.845 63.4673C119.845 63.4068 119.821 63.3487 119.778 63.3059C119.735 63.2631 119.677 63.239 119.617 63.239C119.556 63.239 119.498 63.2631 119.455 63.3059C119.412 63.3487 119.388 63.4068 119.388 63.4673C117.306 70.4116 114.262 77.03 110.345 83.1296C104.578 92.6895 95.6912 99.9668 85.1837 103.734" fill="#00B7CE"/>
    <path d="M39.7105 95.2867C29.1627 90.9449 20.3602 83.2137 14.6917 73.3128C13.7079 71.5351 12.8408 69.6953 12.0956 67.8051C12.0794 67.7614 12.0502 67.7237 12.012 67.6971C11.9737 67.6705 11.9283 67.6562 11.8817 67.6562C11.8351 67.6562 11.7896 67.6705 11.7514 67.6971C11.7131 67.7237 11.6839 67.7614 11.6677 67.8051C11.6677 75.7682 13.6272 83.6088 17.3733 90.6351C21.0011 97.6441 25.7087 104.039 31.3233 109.584C37.7737 111.357 44.4321 112.259 51.1216 112.266C60.6183 112.497 69.9888 110.054 78.1658 105.218C75.8241 105.573 73.4594 105.754 71.091 105.76C59.7465 105.81 48.7075 102.085 39.7105 95.1725" fill="#00B7CE"/>
    <path d="M25.2756 107.472C21.9911 103.699 19.0774 99.6184 16.5746 95.2867C11.3826 86.2974 6.76109 73.7124 9.58533 59.9573C7.63734 48.9757 9.53137 37.658 14.9485 27.9097C18.2725 21.4691 22.478 15.5236 27.4437 10.2451C27.4662 10.2244 27.4844 10.1996 27.4972 10.172C27.5101 10.1443 27.5174 10.1144 27.5188 10.0839C27.5201 10.0534 27.5154 10.023 27.505 9.99435C27.4945 9.96569 27.4785 9.93936 27.4579 9.91688C27.4373 9.89439 27.4125 9.87618 27.3849 9.86329C27.3572 9.85041 27.3273 9.8431 27.2969 9.84177C27.2664 9.84045 27.236 9.84514 27.2073 9.85558C27.1787 9.86601 27.1524 9.88199 27.1299 9.9026C18.8374 15.3588 12.03 22.7905 7.31944 31.53C2.6089 40.2694 0.142822 50.0427 0.142822 59.9716C0.142822 69.9004 2.6089 79.6737 7.31944 88.4132C12.03 97.1526 18.8374 104.584 27.1299 110.041C27.1753 110.082 27.2353 110.104 27.2969 110.101C27.3584 110.099 27.4163 110.072 27.4579 110.026C27.4996 109.981 27.5214 109.921 27.5188 109.859C27.5161 109.798 27.4891 109.74 27.4437 109.698C26.8731 109.099 26.2455 108.357 25.4753 107.472" fill="#00B7CE"/>
    <path d="M97.4221 47.258C97.4221 47.3185 97.4461 47.3766 97.4889 47.4194C97.5317 47.4622 97.5898 47.4863 97.6503 47.4863C97.7108 47.4863 97.7689 47.4622 97.8117 47.4194C97.8545 47.3766 97.8785 47.3185 97.8785 47.258C97.025 40.8204 94.9118 34.6142 91.6595 28.994C89.5204 25.2448 86.8057 21.855 83.6147 18.9488C79.5486 17.6985 75.3163 17.0731 71.0625 17.0939C64.6326 17.0462 58.2557 18.258 52.2912 20.6611C52.2428 20.686 52.2049 20.7275 52.1843 20.7779C52.1638 20.8284 52.162 20.8845 52.1792 20.9362C52.1964 20.9879 52.2316 21.0318 52.2783 21.0598C52.325 21.0878 52.3802 21.0982 52.4339 21.0891C54.9171 20.6203 57.4382 20.3814 59.9652 20.3757C68.2302 20.3777 76.2871 22.9686 83.0049 27.7849C89.7228 32.6011 94.7644 39.4007 97.4221 47.2294" fill="#00B7CE"/>
    <path d="M85.1838 16.3519C95.6763 20.1172 104.552 27.3833 110.317 36.9274C114.248 43.0436 117.302 49.6815 119.389 56.6468C119.389 56.7074 119.413 56.7654 119.455 56.8082C119.498 56.8511 119.556 56.8751 119.617 56.8751C119.677 56.8751 119.735 56.8511 119.778 56.8082C119.821 56.7654 119.845 56.7074 119.845 56.6468C118.984 41.3435 112.294 26.9519 101.151 16.4314C90.0082 5.91095 75.259 0.06136 59.9368 0.0855753C50.5986 0.0430974 41.382 2.20382 33.0351 6.39235C32.9867 6.4173 32.9488 6.45875 32.9282 6.50921C32.9077 6.55968 32.9059 6.61583 32.9231 6.66753C32.9403 6.71922 32.9755 6.76305 33.0222 6.79109C33.0689 6.81913 33.1241 6.82953 33.1778 6.82041C39.0525 5.45571 45.0622 4.7569 51.0932 4.73718C61.4773 4.73718 74.6856 7.02018 85.1838 16.3519Z" fill="#00B7CE"/>
    <path d="M14.6917 46.6587C20.3602 36.7578 29.1627 29.0267 39.7105 24.6849C48.7102 17.7806 59.7495 14.066 71.091 14.126C73.0844 14.1193 75.0761 14.2432 77.0533 14.497C77.107 14.5061 77.1622 14.4957 77.2089 14.4677C77.2556 14.4396 77.2907 14.3958 77.3079 14.3441C77.3252 14.2924 77.3233 14.2363 77.3028 14.1858C77.2822 14.1353 77.2443 14.0939 77.1959 14.0689C69.2332 9.6331 60.2337 7.39723 51.1216 7.59094C44.4317 7.59271 37.7726 8.49499 31.3233 10.2735C25.69 15.8027 20.9801 22.2003 17.3733 29.2223C13.6272 36.2486 11.6677 44.0892 11.6677 52.0523C11.6839 52.096 11.7131 52.1337 11.7514 52.1603C11.7896 52.1869 11.8351 52.2012 11.8817 52.2012C11.9283 52.2012 11.9737 52.1869 12.012 52.1603C12.0502 52.1337 12.0794 52.096 12.0956 52.0523C12.889 50.1642 13.794 48.3251 14.8058 46.5446" fill="#00B7CE"/>
    <path d="M107.92 38.4686C103.738 31.6675 97.9357 26.0099 91.0319 22.0025C90.9857 21.9786 90.9328 21.9713 90.8819 21.9816C90.831 21.9919 90.7851 22.0193 90.7519 22.0592C90.7186 22.0991 90.7 22.1492 90.699 22.2011C90.6981 22.2531 90.7148 22.3038 90.7466 22.3449C91.9857 23.9638 93.1196 25.6605 94.1414 27.4246C99.8796 37.2491 102.178 48.7073 100.674 59.9858C102.178 71.2644 99.8796 82.7226 94.1414 92.5471C93.1124 94.3342 91.9788 96.0589 90.7466 97.7124C90.7148 97.7535 90.6981 97.8042 90.699 97.8562C90.7 97.9081 90.7186 97.9582 90.7519 97.9981C90.7851 98.038 90.831 98.0654 90.8819 98.0757C90.9328 98.086 90.9857 98.0786 91.0319 98.0548C97.9574 94.0035 103.77 88.2968 107.949 81.446C112.171 74.8228 115.337 67.5828 117.334 59.9858C115.347 52.3629 112.17 45.1012 107.92 38.4686Z" fill="#00B7CE"/>
    <path d="M30.1823 33.9311C30.2277 33.8895 30.2547 33.8315 30.2574 33.77C30.2601 33.7084 30.2382 33.6483 30.1966 33.6029C30.155 33.5575 30.097 33.5305 30.0355 33.5278C29.974 33.5251 29.9139 33.547 29.8685 33.5886C24.7282 37.5455 20.4231 42.4825 17.2022 48.1142C15.0289 51.8041 13.441 55.8089 12.4951 59.9858C13.4316 64.2196 15.0196 68.2822 17.2022 72.0286C20.8266 78.3492 25.8169 83.78 31.8084 87.924C24.7861 80.8143 20.7148 71.3088 20.4131 61.3186C20.1114 51.3285 23.6018 41.5945 30.1823 34.0738" fill="#00B7CE"/>
    <path d="M139.443 41.9215C139.853 42.4537 140.38 42.8835 140.984 43.1772C141.609 43.4689 142.291 43.6152 142.981 43.6052C143.871 43.6323 144.754 43.4361 145.548 43.0345C146.23 42.6331 146.777 42.0368 147.117 41.3222C147.509 40.5009 147.722 39.6063 147.745 38.6968H145.862C145.839 39.3495 145.714 39.9946 145.491 40.6088C145.328 41.0603 145.016 41.4428 144.607 41.6932C144.096 41.921 143.54 42.0284 142.981 42.0071C142.493 42.0144 142.012 41.8965 141.583 41.6647C141.196 41.4183 140.881 41.0737 140.67 40.6659C140.427 40.1993 140.254 39.6992 140.157 39.1819C140.111 38.5835 140.111 37.9825 140.157 37.3841V34.5303C140.152 33.8984 140.209 33.2675 140.328 32.6468C140.45 32.1378 140.642 31.6481 140.898 31.1914C141.15 30.8009 141.492 30.4777 141.897 30.2497C142.328 30.0278 142.81 29.9198 143.295 29.9358C143.811 29.9134 144.324 30.0318 144.778 30.2782C145.173 30.5383 145.473 30.9185 145.634 31.3627C145.866 31.974 145.992 32.6208 146.005 33.2747H147.888C147.863 32.3502 147.659 31.4392 147.289 30.5921C146.956 29.8798 146.407 29.2906 145.72 28.9084C144.975 28.5102 144.139 28.3135 143.295 28.3377C142.568 28.325 141.848 28.4711 141.184 28.7657C140.567 29.0509 140.028 29.4818 139.615 30.0214C139.157 30.6065 138.818 31.2754 138.616 31.9905C138.379 32.8257 138.264 33.6907 138.274 34.5589V37.4126C138.264 38.2807 138.379 39.1458 138.616 39.981C138.809 40.6939 139.138 41.3627 139.586 41.95" fill="#6D6E71"/>
    <path d="M152.309 34.7301C152.288 34.019 152.365 33.3083 152.538 32.6183C152.651 32.111 152.854 31.6279 153.137 31.1914C153.391 30.8329 153.736 30.5475 154.135 30.3638C154.532 30.1625 154.974 30.0643 155.419 30.0785C155.882 30.0632 156.343 30.1611 156.76 30.3638C157.156 30.5406 157.493 30.8279 157.73 31.1914C158.036 31.6151 158.241 32.1032 158.329 32.6183C158.477 33.3121 158.544 34.0208 158.528 34.7301V37.2984C158.545 38.0078 158.478 38.7166 158.329 39.4102C158.236 39.9282 158.042 40.4228 157.758 40.8656C157.514 41.2231 157.18 41.5088 156.788 41.6932C156.363 41.8688 155.907 41.9561 155.447 41.9501C154.997 41.9563 154.55 41.8688 154.135 41.6932C153.744 41.5088 153.409 41.2231 153.165 40.8656C152.862 40.4269 152.648 39.9322 152.538 39.4102C152.363 38.7205 152.286 38.0096 152.309 37.2984V34.7301ZM151.882 42.0357C152.299 42.5498 152.839 42.9519 153.451 43.2057C154.088 43.4881 154.78 43.6246 155.476 43.6052C156.201 43.6306 156.922 43.4942 157.587 43.2057C158.19 42.937 158.726 42.5373 159.156 42.0357C159.604 41.4483 159.933 40.7795 160.126 40.0666C160.376 39.1367 160.492 38.1756 160.468 37.2128V34.6445C160.492 33.6817 160.377 32.7205 160.126 31.7907C159.934 31.0719 159.594 30.4012 159.128 29.8216C158.724 29.2982 158.194 28.8858 157.587 28.6231C156.926 28.354 156.218 28.2183 155.505 28.2235C154.81 28.2205 154.121 28.3563 153.479 28.6231C152.868 28.892 152.33 29.3029 151.91 29.8216C151.444 30.4012 151.104 31.0719 150.912 31.7907C150.635 32.7158 150.51 33.6794 150.541 34.6445V37.2128C150.511 38.1778 150.636 39.1413 150.912 40.0666C151.114 40.7871 151.463 41.4577 151.939 42.0357" fill="#6D6E71"/>
    <path d="M168 30.2213C168.424 30.203 168.845 30.2913 169.226 30.4781C169.557 30.6246 169.822 30.8891 169.968 31.2201C170.13 31.6383 170.208 32.0845 170.196 32.5328C170.217 32.9786 170.119 33.4219 169.911 33.817C169.741 34.1623 169.473 34.45 169.141 34.6446C168.8 34.8319 168.417 34.93 168.028 34.93H165.66V30.2213H168ZM170.482 39.1535C170.497 39.6447 170.4 40.133 170.196 40.5804C170.03 40.9509 169.763 41.2673 169.426 41.4936C169.053 41.7077 168.629 41.8162 168.199 41.8075H165.66V36.4995H168.256C168.705 36.4802 169.151 36.589 169.54 36.8134C169.876 37.0396 170.127 37.3709 170.253 37.7552C170.41 38.2046 170.487 38.6777 170.482 39.1535ZM165.66 43.4912H168.199C168.959 43.5029 169.712 43.3368 170.396 43.0061C170.999 42.6649 171.493 42.1604 171.822 41.5507C172.185 40.8356 172.362 40.0406 172.336 39.2391C172.353 38.6341 172.246 38.0321 172.022 37.4698C171.829 36.9653 171.504 36.5219 171.081 36.1856C170.812 35.9637 170.502 35.7986 170.168 35.7005L170.51 35.5007C170.98 35.1971 171.371 34.7863 171.651 34.3021C171.93 33.7962 172.068 33.2245 172.051 32.647C172.064 32.047 171.977 31.449 171.794 30.8776C171.62 30.4154 171.347 29.9966 170.995 29.6505C170.63 29.3145 170.19 29.07 169.711 28.9371C169.155 28.7799 168.578 28.703 168 28.7088H163.778V43.4912H165.66Z" fill="#6D6E71"/>
    <path d="M182.663 34.6446C182.502 35.0581 182.212 35.4085 181.836 35.6434C181.391 35.9166 180.873 36.0461 180.352 36.0144H177.557V30.3069H180.409C180.938 30.2775 181.461 30.4284 181.893 30.7349C182.274 31.0023 182.563 31.3811 182.72 31.8194C182.895 32.2744 182.982 32.7586 182.977 33.2462C182.982 33.7524 182.895 34.2552 182.72 34.7302M184.346 30.8776C183.999 30.2156 183.476 29.6625 182.834 29.2795C182.089 28.8813 181.254 28.6846 180.409 28.7088H175.645V43.4912H177.557V37.7837H180.409C181.247 37.8119 182.08 37.6356 182.834 37.27C183.484 36.9234 184.012 36.3855 184.346 35.729C184.708 34.973 184.885 34.1413 184.86 33.3033C184.875 32.4937 184.699 31.6919 184.346 30.9632" fill="#6D6E71"/>
    <path d="M189.567 43.4055H195.643V41.8359H189.567V36.585H194.787V34.9869H189.567V30.2497H195.558V28.623H189.567H189.253H187.712V43.4055H189.253H189.567Z" fill="#6D6E71"/>
    <path d="M209.479 28.623H208.68L204.829 40.6944L200.949 28.623H200.151H199.152H198.553V43.4055H200.407V37.6409L200.236 31.9049L204.116 43.4055H205.514L209.394 31.9334L209.222 37.6409V43.4055H211.077V28.623H210.478H209.479Z" fill="#6D6E71"/>
    <path d="M216.639 36.585H221.86V34.9869H216.639V30.2497H222.63V28.623H216.639H216.326H214.785V43.4055H216.326H216.639H222.744V41.8359H216.639V36.585Z" fill="#6D6E71"/>
    <path d="M233.442 34.9869H227.509V28.6516H225.626V43.4055H227.509V36.585H233.442V43.4055H235.297V28.6516H233.442V34.9869Z" fill="#6D6E71"/>
    <path d="M248.733 43.4055V28.623H246.85V34.9869H240.917V28.623H239.062V43.4055H240.917V36.585H246.85V43.4055H248.733Z" fill="#6D6E71"/>
    <path d="M259.517 40.3519C259.39 40.7824 259.117 41.1556 258.746 41.4078C258.352 41.7004 257.866 41.8421 257.377 41.8073H254.524V36.2425H257.377C257.86 36.2269 258.337 36.3561 258.746 36.6135C259.109 36.8497 259.38 37.2018 259.517 37.6123C259.694 38.0467 259.782 38.5128 259.773 38.9821C259.776 39.451 259.689 39.9161 259.517 40.3519ZM261.371 40.78C261.548 40.1974 261.635 39.5911 261.628 38.9821C261.653 38.1931 261.487 37.4097 261.143 36.6991C260.832 36.0614 260.335 35.5337 259.716 35.1867C258.997 34.8042 258.191 34.6172 257.377 34.6444H254.524V28.623H252.67V43.4911H257.434C258.056 43.4961 258.675 43.3898 259.26 43.1771C259.764 42.9677 260.221 42.6569 260.601 42.2639C260.958 41.8514 261.239 41.3777 261.428 40.8656" fill="#6D6E71"/>
    <path d="M264.794 28.623H262.94V43.4055H264.794V28.623Z" fill="#6D6E71"/>
    <path d="M276.633 41.8359H270.557V36.585H275.777V34.9869H270.557V30.2497H276.548V28.6516H270.557H270.215H268.703V43.4055H270.215H270.557H276.633V41.8359Z" fill="#6D6E71"/>
    <path d="M141.383 67.4054H143.238V54.2211H147.117V52.5945H143.238H141.383H137.504V54.2211H141.383V67.4054Z" fill="#6D6E71"/>
    <path d="M157.758 65.8073H151.682V60.5564H156.903V58.9583H151.682V54.2211H157.673V52.5945H151.682H151.34H149.828V67.4054H151.34H151.682H157.758V65.8073Z" fill="#6D6E71"/>
    <path d="M169.883 67.4054L165.946 59.9286L169.797 52.5945H167.629L164.833 58.2734L162.037 52.5945H159.869L163.721 59.9286L159.784 67.4054H161.98L164.833 61.6123L167.686 67.4054H169.883Z" fill="#6D6E71"/>
    <path d="M180.466 58.9583H174.532V52.5945H172.65V67.3769H174.532V60.5564H180.466V67.3769H182.321V52.5945H180.466V58.9583Z" fill="#6D6E71"/>
    <path d="M193.817 61.2699C193.834 61.9793 193.767 62.6882 193.618 63.3817C193.531 63.9012 193.336 64.3969 193.047 64.8371C192.793 65.1957 192.448 65.4811 192.049 65.6647C191.207 66.0073 190.265 66.0073 189.424 65.6647C189.032 65.4692 188.691 65.186 188.426 64.8371C188.128 64.395 187.915 63.9015 187.798 63.3817C187.648 62.6882 187.581 61.9793 187.598 61.2699V58.7016C187.583 57.9923 187.65 57.2836 187.798 56.5898C187.921 56.0806 188.133 55.5973 188.426 55.1629C188.677 54.8123 189.01 54.5282 189.396 54.3353C189.813 54.147 190.265 54.0497 190.722 54.0497C191.18 54.0497 191.632 54.147 192.049 54.3353C192.44 54.5197 192.775 54.8055 193.019 55.1629C193.301 55.5994 193.504 56.0825 193.618 56.5898C193.766 57.2836 193.833 57.9923 193.817 58.7016V61.2699ZM194.331 53.9929C193.923 53.4619 193.381 53.0484 192.762 52.7943C191.454 52.2629 189.99 52.2629 188.682 52.7943C188.067 53.0562 187.528 53.4683 187.113 53.9929C186.638 54.5704 186.288 55.2411 186.086 55.962C185.835 56.8917 185.72 57.8529 185.744 58.8157V61.3841C185.721 62.3468 185.836 63.3079 186.086 64.2378C186.312 64.9489 186.659 65.6152 187.113 66.2069C187.543 66.7086 188.079 67.1082 188.682 67.377C189.99 67.9084 191.454 67.9084 192.762 67.377C193.374 67.1231 193.913 66.7211 194.331 66.2069C194.789 65.6218 195.128 64.953 195.329 64.2378C195.58 63.3079 195.695 62.3468 195.672 61.3841V58.8157C195.696 57.8529 195.58 56.8917 195.329 55.962C195.137 55.2432 194.797 54.5725 194.331 53.9929Z" fill="#6D6E71"/>
    <path d="M206.084 52.5945H200.379L200.15 59.5291C200.15 60.4423 200.15 61.2413 200.15 61.9262C200.118 62.5113 200.041 63.0932 199.922 63.667C199.85 64.0715 199.725 64.4649 199.551 64.837C199.424 65.1036 199.227 65.3305 198.981 65.4934C198.739 65.6419 198.465 65.73 198.182 65.7502H197.526V67.3483H198.011C198.511 67.3676 199.01 67.2699 199.466 67.063C199.888 66.8776 200.253 66.5819 200.521 66.2068C200.833 65.7553 201.065 65.2533 201.206 64.7229C201.401 64.0224 201.535 63.3063 201.605 62.5826C201.726 61.6359 201.793 60.6831 201.805 59.7288L202.005 54.0214H206.084V67.2057H207.967V52.5945H206.084Z" fill="#6D6E71"/>
    <path d="M219.378 61.2698C219.381 61.9786 219.314 62.6859 219.178 63.3816C219.07 63.8994 218.867 64.3928 218.579 64.837C218.336 65.1945 218.001 65.4802 217.609 65.6646C217.185 65.8425 216.728 65.93 216.269 65.9214C215.827 65.9306 215.389 65.843 214.985 65.6646C214.581 65.4884 214.235 65.2015 213.986 64.837C213.677 64.4015 213.463 63.9055 213.359 63.3816C213.198 62.6894 213.122 61.9804 213.13 61.2698V58.7015C213.123 57.991 213.2 57.2822 213.359 56.5897C213.469 56.0763 213.682 55.5907 213.986 55.1628C214.23 54.8054 214.565 54.5196 214.956 54.3352C215.359 54.1505 215.797 54.0532 216.24 54.0499C216.702 54.0468 217.16 54.1442 217.581 54.3352C217.977 54.512 218.314 54.7993 218.551 55.1628C218.857 55.5865 219.062 56.0746 219.15 56.5897C219.309 57.2822 219.385 57.991 219.378 58.7015V61.2698ZM219.892 53.9928C219.471 53.4741 218.933 53.0631 218.323 52.7942C217.661 52.5252 216.954 52.3894 216.24 52.3947C215.554 52.3892 214.874 52.5252 214.243 52.7942C213.62 53.0552 213.071 53.467 212.646 53.9928C212.179 54.5723 211.839 55.2431 211.647 55.9619C211.386 56.8901 211.261 57.8514 211.276 58.8156V61.384C211.261 62.3482 211.386 63.3094 211.647 64.2377C211.849 64.9583 212.199 65.6288 212.674 66.2068C213.097 66.7152 213.635 67.1161 214.243 67.3769C215.551 67.9083 217.015 67.9083 218.323 67.3769C218.93 67.1161 219.468 66.7152 219.892 66.2068C220.339 65.6194 220.669 64.9507 220.862 64.2377C221.112 63.3078 221.227 62.3467 221.204 61.384V58.8156C221.228 57.8528 221.113 56.8916 220.862 55.9619C220.679 55.2451 220.348 54.5744 219.892 53.9928Z" fill="#6D6E71"/>
    <path d="M226.596 54.2211H232.415V52.5945H224.741V67.4054H226.596V54.2211Z" fill="#6D6E71"/>
    <path d="M242.457 55.9904V67.4054H244.34V52.5945H242.457L236.694 64.0095V52.5945H234.84V67.4054H236.694L242.457 55.9904Z" fill="#6D6E71"/>
    <path d="M250.103 64.0095V52.5945H248.248V67.3769H250.103L255.865 55.9904V67.3769H257.719V52.5945H255.865L250.103 64.0095Z" fill="#6D6E71"/>
    <path d="M149.4 76.5945H148.601L144.75 88.6373L140.87 76.5945H140.071H139.073H138.474V91.3769H140.328V85.6123L140.157 79.8478L144.008 91.3769H145.434L149.314 79.8763L149.114 85.6123V91.3769H150.969V76.5945H150.398H149.4Z" fill="#6D6E71"/>
    <path d="M157.074 85.8691L159.099 79.1628L161.096 85.8691H157.074ZM159.498 76.5659H158.3L153.536 91.3483H155.447L156.589 87.4958H161.581L162.751 91.3483H164.662L159.898 76.5659H159.498Z" fill="#6D6E71"/>
    <path d="M179.011 89.7788H175.046V76.5945H173.192V89.7788H169.169V76.5945H167.315V91.3769H180.866V76.5945H179.011V89.7788Z" fill="#6D6E71"/>
    <path d="M186.628 87.9809V76.5945H184.774V91.3769H186.628L192.391 79.9619V91.3769H194.245V76.5945H192.391L186.628 87.9809Z" fill="#6D6E71"/>
    <path d="M205.884 82.9298H199.951V76.5945H198.068V91.3769H199.951V84.5279H205.884V91.3769H207.739V76.5945H205.884V82.9298Z" fill="#6D6E71"/>
    <path d="M219.235 85.2414C219.252 85.9507 219.185 86.6596 219.036 87.3532C218.949 87.8726 218.754 88.3683 218.465 88.8086C218.21 89.1671 217.866 89.4525 217.467 89.6361C216.625 89.9788 215.683 89.9788 214.842 89.6361C214.45 89.4406 214.109 89.1574 213.844 88.8086C213.546 88.3664 213.333 87.8729 213.216 87.3532C213.066 86.6596 212.999 85.9507 213.016 85.2414V82.673C213.003 81.9732 213.07 81.2743 213.216 80.5898C213.339 80.0805 213.551 79.5973 213.844 79.1629C214.095 78.8123 214.428 78.5282 214.814 78.3353C215.23 78.147 215.683 78.0496 216.14 78.0496C216.598 78.0496 217.05 78.147 217.467 78.3353C217.858 78.5197 218.193 78.8054 218.437 79.1629C218.719 79.5993 218.922 80.0824 219.036 80.5898C219.184 81.2836 219.251 81.9923 219.235 82.7016V85.2414ZM219.749 77.9643C219.341 77.4333 218.799 77.0198 218.18 76.7658C216.872 76.2343 215.408 76.2343 214.1 76.7658C213.485 77.0276 212.946 77.4398 212.531 77.9643C212.056 78.5419 211.706 79.2126 211.504 79.9334C211.253 80.8632 211.138 81.8244 211.162 82.7872V85.3555C211.139 86.3183 211.254 87.2794 211.504 88.2093C211.73 88.9203 212.077 89.5867 212.531 90.1784C212.961 90.68 213.497 91.0797 214.1 91.3484C215.408 91.8798 216.872 91.8798 218.18 91.3484C218.792 91.0946 219.331 90.6925 219.749 90.1784C220.207 89.5933 220.546 88.9244 220.747 88.2093C220.998 87.2794 221.113 86.3183 221.09 85.3555V82.7872C221.114 81.8244 220.998 80.8632 220.747 79.9334C220.555 79.2146 220.215 78.5439 219.749 77.9643Z" fill="#6D6E71"/>
    <path d="M226.054 80.5897C226.151 80.0731 226.345 79.5793 226.624 79.1343C226.858 78.7471 227.194 78.4314 227.594 78.2211C228.023 77.9893 228.504 77.8714 228.992 77.8786C229.518 77.851 230.041 77.9695 230.504 78.2211C230.899 78.4929 231.198 78.8823 231.36 79.334C231.579 79.9391 231.704 80.5744 231.731 81.2175H233.585C233.585 80.2901 233.38 79.3742 232.986 78.535C232.654 77.831 232.117 77.244 231.445 76.8513C230.69 76.4532 229.845 76.2566 228.992 76.2805C228.275 76.2674 227.563 76.4136 226.909 76.7086C226.289 77.0009 225.743 77.4302 225.312 77.9642C224.864 78.5516 224.535 79.2203 224.342 79.9333C224.105 80.7685 223.99 81.6335 224 82.5017V85.3554C223.99 86.2236 224.105 87.0886 224.342 87.9238C224.535 88.6368 224.864 89.3055 225.312 89.8929C225.711 90.4238 226.229 90.8539 226.824 91.1485C227.45 91.4375 228.132 91.5837 228.821 91.5766C229.72 91.6036 230.612 91.4075 231.417 91.0058C232.099 90.6045 232.645 90.0082 232.986 89.2936C233.367 88.4701 233.571 87.5756 233.585 86.6681H231.759C231.728 87.3226 231.593 87.968 231.36 88.5802C231.205 89.0365 230.891 89.4216 230.475 89.6646C229.969 89.9054 229.409 90.0134 228.849 89.9785C228.379 90.0039 227.912 89.8902 227.506 89.6517C227.1 89.4131 226.774 89.0603 226.567 88.6372C226.326 88.1698 226.153 87.67 226.054 87.1533C225.936 86.5517 225.879 85.9399 225.882 85.3269V82.4731C225.877 81.8412 225.934 81.2103 226.054 80.5897Z" fill="#6D6E71"/>
    <path d="M239.205 76.5945H235.325V78.1926H239.205V91.3769H241.059V78.1926H244.939V76.5945H241.059H239.205Z" fill="#6D6E71"/>
    <path d="M254.382 82.5873C254.232 82.9988 253.951 83.3497 253.583 83.5861C253.135 83.8527 252.62 83.9818 252.099 83.9571H249.247V78.2496H252.099C252.627 78.2289 253.147 78.379 253.583 78.6777C253.955 78.9479 254.234 79.3268 254.382 79.7621C254.566 80.2153 254.663 80.6995 254.667 81.189C254.666 81.6971 254.569 82.2005 254.382 82.6729M254.382 77.2223C253.636 76.8265 252.801 76.6299 251.957 76.6515H247.392V91.4339H249.247V85.7264H252.099C252.937 85.7513 253.769 85.5752 254.524 85.2127C255.167 84.866 255.686 84.3273 256.008 83.6717C256.37 82.9158 256.546 82.084 256.521 81.246C256.537 80.4364 256.361 79.6346 256.008 78.906C255.671 78.246 255.157 77.6926 254.524 77.3079" fill="#6D6E71"/>
    <path d="M266.763 85.2414C266.78 85.9507 266.713 86.6596 266.563 87.3532C266.467 87.8748 266.263 88.3706 265.964 88.8086C265.727 89.1721 265.39 89.4594 264.994 89.6361C264.571 89.8165 264.113 89.9041 263.653 89.893C263.212 89.9022 262.773 89.8145 262.369 89.6361C261.97 89.4525 261.626 89.1671 261.371 88.8086C261.074 88.3664 260.861 87.8729 260.743 87.3532C260.594 86.6596 260.527 85.9507 260.544 85.2414V82.673C260.528 81.9637 260.595 81.2551 260.743 80.5612C260.866 80.052 261.078 79.5688 261.371 79.1344C261.622 78.7838 261.955 78.4997 262.341 78.3068C262.758 78.1185 263.21 78.0211 263.667 78.0211C264.125 78.0211 264.577 78.1185 264.994 78.3068C265.385 78.4912 265.72 78.7769 265.964 79.1344C266.246 79.5708 266.449 80.0539 266.563 80.5612C266.711 81.2551 266.778 81.9637 266.763 82.673V85.2414ZM267.276 77.9643C266.868 77.4333 266.327 77.0198 265.707 76.7658C264.399 76.2343 262.936 76.2343 261.628 76.7658C261.013 77.0276 260.473 77.4398 260.059 77.9643C259.583 78.5419 259.233 79.2126 259.032 79.9334C258.781 80.8632 258.665 81.8244 258.689 82.7872V85.3555C258.666 86.3183 258.781 87.2794 259.032 88.2093C259.257 88.9203 259.605 89.5867 260.059 90.1784C260.488 90.68 261.024 91.0797 261.628 91.3484C262.936 91.8798 264.399 91.8798 265.707 91.3484C266.319 91.0946 266.858 90.6925 267.276 90.1784C267.734 89.5933 268.073 88.9244 268.275 88.2093C268.525 87.2794 268.64 86.3183 268.617 85.3555V82.7872C268.641 81.8244 268.526 80.8632 268.275 79.9334C268.083 79.2146 267.743 78.5439 267.276 77.9643Z" fill="#6D6E71"/>
    <path d="M273.467 84.5279H278.687V82.9298H273.467V78.1926H279.429V76.5945H273.467H273.124H271.584V91.3769H273.124H273.467H279.543V89.7788H273.467V84.5279Z" fill="#6D6E71"/>
    <path d="M290.241 82.9298H284.307V76.5945H282.453V91.3769H284.307V84.5279H290.241V91.3769H292.124V76.5945H290.241V82.9298Z" fill="#6D6E71"/>
    <path d="M297.801 87.9809V76.5945H295.947V91.3769H297.801L303.563 79.9619V91.3769H305.418V76.5945H303.563L297.801 87.9809Z" fill="#6D6E71"/>
    <path d="M312.978 83.9858C312.467 84.0065 311.961 83.8776 311.523 83.6149C311.149 83.3452 310.853 82.9807 310.667 82.559C310.466 82.0707 310.368 81.5459 310.382 81.018C310.341 80.2715 310.563 79.5343 311.009 78.9347C311.254 78.6682 311.555 78.4605 311.891 78.3271C312.227 78.1937 312.589 78.138 312.949 78.1642H315.117V83.8717L312.978 83.9858ZM312.978 76.5661C312.158 76.5437 311.346 76.7199 310.61 77.0798C309.959 77.4214 309.423 77.9475 309.069 78.5923C308.697 79.3458 308.511 80.1777 308.527 81.018C308.499 81.9485 308.758 82.8651 309.269 83.6434C309.702 84.238 310.282 84.7099 310.952 85.0132L308.099 91.3485H310.096L312.635 85.641H315.203V91.3485H317.057V76.5661H312.978Z" fill="#6D6E71"/>
  </symbol>

  <symbol id="circle" viewBox="0 0 233 233">
    <path d="M116.38 232.77C100.819 232.803 85.4114 229.694 71.0803 223.63C57.2462 217.768 44.6807 209.278 34.0803 198.63C23.4508 188.027 14.9808 175.461 9.14022 161.63C3.07641 147.299 -0.0322909 131.891 0.000265996 116.33C-0.0331146 100.769 3.07561 85.361 9.14022 71.0301C14.9837 57.2006 23.4534 44.6354 34.0803 34.0301C44.6834 23.4007 57.2492 14.9307 71.0803 9.09011C85.4108 3.02313 100.818 -0.088975 116.38 -0.0598561C131.942 -0.088975 147.35 3.02313 161.68 9.09011C175.511 14.9307 188.077 23.4007 198.68 34.0301C209.307 44.6354 217.777 57.2006 223.62 71.0301C229.685 85.361 232.794 100.769 232.76 116.33C232.793 131.891 229.684 147.299 223.62 161.63C217.78 175.461 209.31 188.027 198.68 198.63C188.08 209.278 175.514 217.768 161.68 223.63C147.349 229.694 131.941 232.803 116.38 232.77ZM116.38 0.690144C85.7053 0.724552 56.2965 12.9254 34.606 34.6159C12.9155 56.3064 0.714667 85.7151 0.680259 116.39C0.714667 147.065 12.9155 176.474 34.606 198.164C56.2965 219.855 85.7053 232.056 116.38 232.09C147.055 232.056 176.464 219.855 198.154 198.164C219.845 176.474 232.046 147.065 232.08 116.39C232.046 85.7151 219.845 56.3064 198.154 34.6159C176.464 12.9254 147.055 0.724552 116.38 0.690144ZM99.6103 218.39C86.4225 218.411 73.2962 216.594 60.6103 212.99C60.3703 212.85 34.0202 188.44 24.9502 154.9C21.4034 142.361 20.9232 129.153 23.5503 116.39C12.4603 64.2101 59.9903 20.3301 60.5503 19.8401H60.6103H60.6702C75.5074 15.6407 90.9285 13.881 106.33 14.6301C120.86 15.3801 133.95 18.6301 145.24 24.2001C151.6 27.3385 157.499 31.3359 162.77 36.0801C169.54 38.25 175.98 41.3388 181.91 45.2601C192.4 52.2601 201.73 61.9801 209.65 74.1901C217.974 87.1504 224.141 101.375 227.91 116.31V116.46C224.125 131.401 217.941 145.629 209.6 158.59C201.68 170.8 192.35 180.53 181.86 187.51C175.955 191.455 169.535 194.568 162.78 196.76C157.495 201.514 151.584 205.522 145.21 208.67C133.91 214.26 120.81 217.48 106.26 218.22C104.01 218.34 101.78 218.39 99.6103 218.39ZM60.9602 212.39C75.703 216.51 91.0087 218.252 106.3 217.55C122.87 216.69 143.82 212.13 161.09 197.3C153.384 199.579 145.386 200.717 137.35 200.68C116.269 200.807 95.7574 193.844 79.1103 180.91C59.6054 172.951 43.3365 158.675 32.9102 140.37C28.8637 133.435 25.8519 125.946 23.9702 118.14C19.7602 140.5 26.2903 160.92 33.8303 175.69C40.861 189.287 50.0198 201.674 60.9602 212.38V212.39ZM81.5402 181.91C97.7241 193.769 117.287 200.12 137.35 200.03C145.858 200.071 154.319 198.769 162.42 196.17C168.723 190.455 174.083 183.779 178.3 176.39C188.47 159.021 192.763 138.834 190.54 118.83C190.25 120.53 189.92 122.23 189.54 123.91C184.31 146.69 170.69 165.44 151.19 176.7C131.69 187.96 108.64 190.38 86.3003 183.52C84.6903 182.99 83.1002 182.45 81.5402 181.91ZM190.91 116.39C193.783 137.267 189.556 158.503 178.91 176.69C174.93 183.67 169.947 190.027 164.12 195.56C185.61 188.02 200.03 172.14 209.06 158.22C217.299 145.327 223.438 131.208 227.25 116.39C223.438 101.572 217.299 87.4531 209.06 74.5601C200.06 60.6401 185.61 44.7601 164.12 37.2201C169.947 42.753 174.93 49.1107 178.91 56.0901C189.556 74.2767 193.783 95.5133 190.91 116.39ZM79.4702 180.3C89.6047 184.411 100.434 186.54 111.37 186.57C125.219 186.609 138.832 182.987 150.83 176.07C170.16 164.9 183.67 146.31 188.83 123.72C189.39 121.29 189.83 118.84 190.2 116.39C189.854 113.93 189.397 111.487 188.83 109.06C183.65 86.4601 170.14 67.8701 150.83 56.7101C131.52 45.5501 108.64 43.1501 86.4802 49.9501C84.1403 50.6601 81.8502 51.4701 79.5902 52.3701C59.9602 67.7201 47.4602 90.7201 47.4602 116.37C47.4602 142.02 59.9102 164.96 79.4802 180.3H79.4702ZM24.3003 116.39C26.0888 124.707 29.1874 132.686 33.4802 140.03C43.4371 157.448 58.7193 171.213 77.0803 179.3C75.8003 178.24 74.5402 177.13 73.3102 175.99C56.2002 160.07 46.7802 138.91 46.7802 116.39C46.7802 93.8701 56.2002 72.7001 73.3102 56.7801C74.5769 55.6001 75.8769 54.4601 77.2102 53.3601C58.775 61.4429 43.439 75.2569 33.4802 92.7501C29.1952 100.097 26.1002 108.076 24.3102 116.39H24.3003ZM60.9502 20.3901C50.0215 31.0991 40.8639 43.4768 33.8202 57.0601C26.2802 71.8401 19.7402 92.2601 23.9502 114.63C25.8398 106.827 28.8583 99.3413 32.9102 92.4101C43.3338 74.092 59.607 59.805 79.1202 51.8401C95.7726 38.9201 116.284 31.9715 137.36 32.1101C145.396 32.0727 153.394 33.2114 161.1 35.4901C143.83 20.6501 122.88 16.1001 106.31 15.2401C91.0148 14.5015 75.7006 16.2406 60.9602 20.3901H60.9502ZM111.34 45.4701C125.323 45.4477 139.064 49.1218 151.17 56.1201C170.67 67.3801 184.29 86.1201 189.52 108.9C189.91 110.59 190.24 112.28 190.52 113.98C192.742 93.9794 188.449 73.7956 178.28 56.4301C174.065 49.0392 168.705 42.363 162.4 36.6501C154.3 34.0468 145.838 32.744 137.33 32.7901C117.274 32.7034 97.7183 39.0547 81.5402 50.9101C83.1002 50.3301 84.6902 49.8001 86.2902 49.3101C94.4056 46.7885 102.852 45.4942 111.35 45.4701H111.34Z"/>
  </symbol>

</svg>
