<svg xmlns="http://www.w3.org/2000/svg">
  <symbol id="logo" viewBox="0 0 112 43" fill="none">
    <path d="M34.4 24.69C33.5942 27.6206 31.8487 30.2057 29.4316 32.0483C27.0145 33.891 24.0594 34.8893 21.02 34.89C20.1342 34.888 19.2504 34.8043 18.38 34.64C18.3612 34.6368 18.3418 34.6405 18.3255 34.6503C18.3091 34.6601 18.2968 34.6755 18.2907 34.6936C18.2847 34.7117 18.2853 34.7314 18.2925 34.7491C18.2997 34.7667 18.313 34.7813 18.33 34.79C20.4173 35.6492 22.6528 36.0908 24.91 36.09C26.4003 36.0957 27.8831 35.88 29.31 35.45C30.4264 34.4258 31.3777 33.235 32.13 31.92C33.4166 29.7096 34.1922 27.2392 34.4 24.69Z" fill="#00B7CE"/>
    <path d="M29.8599 36.31C26.1799 39.58 21.5499 40.38 17.9099 40.38C15.7925 40.3733 13.6826 40.1285 11.6199 39.65C11.5299 39.65 11.4799 39.75 11.5699 39.8C14.4986 41.2843 17.7366 42.0553 21.0199 42.05C26.3876 42.0561 31.5538 40.0065 35.4574 36.3223C39.3611 32.6382 41.7058 27.599 42.0099 22.24C42.0099 22.2188 42.0015 22.1984 41.9865 22.1834C41.9715 22.1684 41.9511 22.16 41.9299 22.16C41.9087 22.16 41.8884 22.1684 41.8734 22.1834C41.8584 22.1984 41.8499 22.2188 41.8499 22.24C41.1201 24.6734 40.0531 26.9926 38.6799 29.13C36.6584 32.4799 33.5432 35.03 29.8599 36.35" fill="#00B7CE"/>
    <path d="M13.9201 33.39C10.2227 31.8685 7.13713 29.1594 5.15009 25.69C4.80526 25.0671 4.50128 24.4224 4.24009 23.76C4.2344 23.7447 4.22417 23.7315 4.21077 23.7221C4.19736 23.7128 4.18142 23.7078 4.16509 23.7078C4.14876 23.7078 4.13282 23.7128 4.11941 23.7221C4.106 23.7315 4.09577 23.7447 4.09009 23.76C4.09009 26.5504 4.77696 29.2979 6.09009 31.76C7.36179 34.2161 9.01196 36.4568 10.9801 38.4C13.2412 39.0213 15.5752 39.3374 17.9201 39.34C21.249 39.4206 24.5337 38.5648 27.4001 36.87C26.5792 36.9944 25.7503 37.0579 24.9201 37.06C20.9435 37.0774 17.0739 35.7723 13.9201 33.35" fill="#00B7CE"/>
    <path d="M8.85999 37.66C7.70867 36.3378 6.68729 34.9079 5.80999 33.39C3.98999 30.24 2.36999 25.83 3.35999 21.01C2.67715 17.1619 3.34108 13.1959 5.23999 9.78C6.40515 7.5231 7.87935 5.4397 9.61999 3.59C9.62787 3.58278 9.63425 3.57408 9.63876 3.56439C9.64328 3.5547 9.64584 3.54422 9.64631 3.53354C9.64677 3.52286 9.64513 3.51219 9.64147 3.50215C9.63781 3.49211 9.63221 3.48288 9.62499 3.475C9.61777 3.46712 9.60906 3.46074 9.59937 3.45623C9.58969 3.45171 9.5792 3.44915 9.56852 3.44869C9.55785 3.44822 9.54718 3.44986 9.53714 3.45352C9.52709 3.45718 9.51787 3.46278 9.50999 3.47C6.60317 5.38194 4.21693 7.98614 2.56571 11.0486C0.914498 14.111 0.0500488 17.5358 0.0500488 21.015C0.0500488 24.4942 0.914498 27.919 2.56571 30.9814C4.21693 34.0439 6.60317 36.6481 9.50999 38.56C9.5259 38.5746 9.54696 38.5823 9.56852 38.5813C9.59009 38.5804 9.6104 38.5709 9.62499 38.555C9.63958 38.5391 9.64724 38.518 9.64631 38.4965C9.64537 38.4749 9.6359 38.4546 9.61999 38.44C9.41999 38.23 9.19999 37.97 8.92999 37.66" fill="#00B7CE"/>
    <path d="M34.15 16.56C34.15 16.5812 34.1584 16.6016 34.1734 16.6166C34.1884 16.6316 34.2088 16.64 34.23 16.64C34.2512 16.64 34.2716 16.6316 34.2866 16.6166C34.3016 16.6016 34.31 16.5812 34.31 16.56C34.0108 14.3042 33.27 12.1294 32.13 10.16C31.3802 8.84621 30.4286 7.65839 29.31 6.64001C27.8847 6.20188 26.4011 5.98272 24.91 5.99001C22.6561 5.9733 20.4208 6.39795 18.33 7.24001C18.313 7.24875 18.2997 7.26327 18.2925 7.28096C18.2853 7.29864 18.2847 7.31832 18.2907 7.33643C18.2968 7.35455 18.3091 7.3699 18.3255 7.37973C18.3418 7.38956 18.3612 7.3932 18.38 7.39001C19.2504 7.22571 20.1342 7.14202 21.02 7.14001C23.9172 7.14071 26.7414 8.04862 29.0963 9.7363C31.4511 11.424 33.2184 13.8067 34.15 16.55" fill="#00B7CE"/>
    <path d="M29.86 5.73C33.538 7.04941 36.6492 9.59559 38.67 12.94C40.0481 15.0832 41.1185 17.4092 41.85 19.85C41.85 19.8712 41.8584 19.8916 41.8734 19.9066C41.8884 19.9216 41.9088 19.93 41.93 19.93C41.9512 19.93 41.9716 19.9216 41.9866 19.9066C42.0016 19.8916 42.01 19.8712 42.01 19.85C41.7082 14.4875 39.3632 9.44441 35.4571 5.75786C31.5511 2.07131 26.381 0.021515 21.01 0.0300004C17.7366 0.0151155 14.5059 0.772268 11.58 2.24C11.563 2.24874 11.5497 2.26327 11.5425 2.28095C11.5353 2.29863 11.5347 2.31831 11.5407 2.33643C11.5468 2.35454 11.5591 2.3699 11.5755 2.37972C11.5918 2.38955 11.6112 2.39319 11.63 2.39C13.6893 1.91179 15.7959 1.66691 17.91 1.66C21.55 1.66 26.18 2.46 29.86 5.73Z" fill="#00B7CE"/>
    <path d="M5.15009 16.35C7.13713 12.8806 10.2227 10.1714 13.9201 8.65001C17.0748 6.23062 20.9445 4.92899 24.9201 4.95001C25.6188 4.94766 26.317 4.99108 27.0101 5.08001C27.0289 5.0832 27.0483 5.07956 27.0646 5.06973C27.081 5.05991 27.0933 5.04455 27.0994 5.02643C27.1054 5.00832 27.1048 4.98864 27.0976 4.97096C27.0904 4.95327 27.0771 4.93875 27.0601 4.93001C24.2689 3.37561 21.1142 2.59213 17.9201 2.66001C15.5751 2.66063 13.2408 2.9768 10.9801 3.60001C9.00541 5.53753 7.35443 7.77936 6.09009 10.24C4.77696 12.7021 4.09009 15.4496 4.09009 18.24C4.09577 18.2553 4.106 18.2685 4.11941 18.2778C4.13282 18.2872 4.14876 18.2922 4.16509 18.2922C4.18142 18.2922 4.19736 18.2872 4.21077 18.2778C4.22417 18.2685 4.2344 18.2553 4.24009 18.24C4.51819 17.5784 4.83542 16.9339 5.19009 16.31" fill="#00B7CE"/>
    <path d="M37.8299 13.48C36.364 11.0968 34.33 9.11426 31.9099 7.70999C31.8937 7.70164 31.8752 7.69906 31.8573 7.70267C31.8395 7.70628 31.8234 7.71588 31.8118 7.72987C31.8001 7.74385 31.7936 7.7614 31.7932 7.7796C31.7929 7.79781 31.7988 7.81558 31.8099 7.82999C32.2442 8.39726 32.6417 8.99182 32.9999 9.60999C35.0113 13.0527 35.8172 17.0678 35.2899 21.02C35.8172 24.9722 35.0113 28.9873 32.9999 32.43C32.6392 33.0562 32.2419 33.6606 31.8099 34.24C31.7988 34.2544 31.7929 34.2722 31.7932 34.2904C31.7936 34.3086 31.8001 34.3261 31.8118 34.3401C31.8234 34.3541 31.8395 34.3637 31.8573 34.3673C31.8752 34.3709 31.8937 34.3683 31.9099 34.36C34.3375 32.9403 36.3751 30.9406 37.8399 28.54C39.3199 26.2191 40.4298 23.6821 41.1299 21.02C40.4332 18.3488 39.3195 15.8042 37.8299 13.48Z" fill="#00B7CE"/>
    <path d="M10.5799 11.89C10.5958 11.8754 10.6053 11.8551 10.6062 11.8335C10.6071 11.812 10.5995 11.7909 10.5849 11.775C10.5703 11.7591 10.55 11.7496 10.5284 11.7487C10.5069 11.7477 10.4858 11.7554 10.4699 11.77C8.66802 13.1565 7.15893 14.8865 6.02988 16.86C5.26806 18.153 4.71144 19.5563 4.37988 21.02C4.70817 22.5036 5.2648 23.9272 6.02988 25.24C7.30036 27.4548 9.04964 29.3579 11.1499 30.81C8.6883 28.3186 7.26117 24.9878 7.15542 21.487C7.04968 17.9863 8.27316 14.5754 10.5799 11.94" fill="#00B7CE"/>
    <path d="M48.8799 14.69C49.0235 14.8765 49.2083 15.0271 49.4199 15.13C49.6389 15.2322 49.8783 15.2835 50.1199 15.28C50.4319 15.2895 50.7413 15.2207 51.0199 15.08C51.259 14.9393 51.4506 14.7304 51.5699 14.48C51.7071 14.1922 51.782 13.8787 51.7899 13.56H51.1299C51.1217 13.7887 51.0779 14.0148 50.9999 14.23C50.9428 14.3882 50.8335 14.5222 50.6899 14.61C50.5109 14.6898 50.3159 14.7275 50.1199 14.72C49.949 14.7225 49.7803 14.6812 49.6299 14.6C49.4942 14.5137 49.3838 14.3929 49.3099 14.25C49.2246 14.0865 49.164 13.9112 49.1299 13.73C49.1139 13.5203 49.1139 13.3097 49.1299 13.1V12.1C49.1282 11.8786 49.1483 11.6575 49.1899 11.44C49.2329 11.2616 49.3002 11.09 49.3899 10.93C49.478 10.7931 49.5982 10.6799 49.7399 10.6C49.8913 10.5222 50.0599 10.4844 50.2299 10.49C50.4109 10.4821 50.5907 10.5236 50.7499 10.61C50.8882 10.7011 50.9934 10.8344 51.0499 10.99C51.1313 11.2042 51.1753 11.4309 51.1799 11.66H51.8399C51.8313 11.336 51.76 11.0168 51.6299 10.72C51.5132 10.4704 51.3208 10.2639 51.0799 10.13C50.8189 9.99045 50.5259 9.92151 50.2299 9.92999C49.9753 9.92555 49.7228 9.97674 49.4899 10.08C49.2737 10.1799 49.0849 10.3309 48.9399 10.52C48.7795 10.725 48.6606 10.9594 48.5899 11.21C48.5068 11.5026 48.4664 11.8058 48.4699 12.11V13.11C48.4664 13.4142 48.5068 13.7173 48.5899 14.01C48.6576 14.2598 48.773 14.4942 48.9299 14.7" fill="#FFFFFF"/>
    <path d="M53.3899 12.17C53.3823 11.9208 53.4092 11.6718 53.4699 11.43C53.5098 11.2522 53.5809 11.0829 53.6799 10.93C53.7692 10.8044 53.8899 10.7044 54.0299 10.64C54.1692 10.5694 54.3239 10.535 54.4799 10.54C54.6424 10.5346 54.8037 10.569 54.9499 10.64C55.0888 10.7019 55.2069 10.8026 55.2899 10.93C55.3972 11.0785 55.469 11.2495 55.4999 11.43C55.5518 11.6731 55.5753 11.9215 55.5699 12.17V13.07C55.5759 13.3186 55.5524 13.567 55.4999 13.81C55.4675 13.9915 55.3995 14.1648 55.2999 14.32C55.2145 14.4453 55.0971 14.5454 54.9599 14.61C54.811 14.6715 54.6511 14.7021 54.4899 14.7C54.332 14.7022 54.1754 14.6715 54.0299 14.61C53.8927 14.5454 53.7754 14.4453 53.6899 14.32C53.5835 14.1663 53.5087 13.9929 53.4699 13.81C53.4087 13.5683 53.3818 13.3192 53.3899 13.07V12.17ZM53.2399 14.73C53.3864 14.9102 53.5754 15.0511 53.7899 15.14C54.0132 15.239 54.2558 15.2868 54.4999 15.28C54.7539 15.2889 55.0067 15.2411 55.2399 15.14C55.4514 15.0458 55.6393 14.9058 55.7899 14.73C55.9468 14.5242 56.0623 14.2898 56.1299 14.04C56.2176 13.7141 56.2581 13.3774 56.2499 13.04V12.14C56.2583 11.8026 56.2179 11.4658 56.1299 11.14C56.0626 10.8881 55.9434 10.6531 55.7799 10.45C55.6383 10.2666 55.4525 10.1221 55.2399 10.03C55.0082 9.93573 54.7601 9.88816 54.5099 9.89001C54.2663 9.88895 54.0249 9.93654 53.7999 10.03C53.5858 10.1242 53.3972 10.2682 53.2499 10.45C53.0864 10.6531 52.9672 10.8881 52.8999 11.14C52.803 11.4642 52.7591 11.8018 52.7699 12.14V13.04C52.7594 13.3781 52.8033 13.7158 52.8999 14.04C52.9708 14.2925 53.0933 14.5275 53.2599 14.73" fill="#FFFFFF"/>
    <path d="M58.8899 10.59C59.0385 10.5836 59.1864 10.6146 59.3199 10.68C59.4359 10.7313 59.5286 10.824 59.5799 10.94C59.6367 11.0866 59.6639 11.2429 59.6599 11.4C59.6672 11.5562 59.6326 11.7116 59.5599 11.85C59.5002 11.971 59.4063 12.0718 59.2899 12.14C59.1704 12.2056 59.0363 12.24 58.8999 12.24H58.0699V10.59H58.8899ZM59.7599 13.72C59.7655 13.8922 59.7312 14.0633 59.6599 14.22C59.6016 14.3499 59.5081 14.4607 59.3899 14.54C59.2592 14.615 59.1106 14.6531 58.9599 14.65H58.0699V12.79H58.9799C59.1373 12.7832 59.2934 12.8214 59.4299 12.9C59.5475 12.9793 59.6354 13.0954 59.6799 13.23C59.7348 13.3875 59.7618 13.5533 59.7599 13.72ZM58.0699 15.24H58.9599C59.2263 15.2441 59.49 15.1859 59.7299 15.07C59.9413 14.9505 60.1146 14.7737 60.2299 14.56C60.3571 14.3095 60.419 14.0309 60.4099 13.75C60.4158 13.538 60.3783 13.3271 60.2999 13.13C60.2321 12.9532 60.1181 12.7978 59.9699 12.68C59.8759 12.6022 59.767 12.5444 59.6499 12.51L59.7699 12.44C59.9346 12.3336 60.0717 12.1897 60.1699 12.02C60.2677 11.8427 60.3161 11.6424 60.3099 11.44C60.3146 11.2298 60.2842 11.0202 60.2199 10.82C60.159 10.658 60.0634 10.5113 59.9399 10.39C59.8118 10.2723 59.6576 10.1866 59.4899 10.14C59.2947 10.0849 59.0927 10.058 58.8899 10.06H57.4099V15.24H58.0699Z" fill="#FFFFFF"/>
    <path d="M64.0301 12.14C63.9737 12.2849 63.872 12.4077 63.7401 12.49C63.5842 12.5857 63.4026 12.6311 63.2201 12.62H62.2401V10.62H63.2401C63.4254 10.6097 63.6087 10.6626 63.7601 10.77C63.8937 10.8637 63.995 10.9964 64.0501 11.15C64.1114 11.3095 64.142 11.4791 64.1401 11.65C64.1419 11.8274 64.1114 12.0036 64.0501 12.17M64.6201 10.82C64.4984 10.588 64.315 10.3942 64.0901 10.26C63.829 10.1205 63.536 10.0515 63.2401 10.06H61.5701V15.24H62.2401V13.24H63.2401C63.5338 13.2499 63.8255 13.1881 64.0901 13.06C64.3179 12.9385 64.5029 12.75 64.6201 12.52C64.7471 12.2551 64.8088 11.9636 64.8001 11.67C64.8055 11.3863 64.7439 11.1053 64.6201 10.85" fill="#FFFFFF"/>
    <path d="M66.45 15.21H68.58V14.66H66.45V12.82H68.28V12.26H66.45V10.6H68.55V10.03H66.45H66.34H65.8V15.21H66.34H66.45Z" fill="#FFFFFF"/>
    <path d="M73.4301 10.03H73.1501L71.8001 14.26L70.4401 10.03H70.1601H69.8101H69.6001V15.21H70.2501V13.19L70.1901 11.18L71.5501 15.21H72.0401L73.4001 11.19L73.3401 13.19V15.21H73.9901V10.03H73.7801H73.4301Z" fill="#FFFFFF"/>
    <path d="M75.94 12.82H77.77V12.26H75.94V10.6H78.04V10.03H75.94H75.83H75.29V15.21H75.83H75.94H78.08V14.66H75.94V12.82Z" fill="#FFFFFF"/>
    <path d="M81.8301 12.26H79.7501V10.04H79.0901V15.21H79.7501V12.82H81.8301V15.21H82.4801V10.04H81.8301V12.26Z" fill="#FFFFFF"/>
    <path d="M87.19 15.21V10.03H86.53V12.26H84.45V10.03H83.8V15.21H84.45V12.82H86.53V15.21H87.19Z" fill="#FFFFFF"/>
    <path d="M90.9701 14.14C90.9256 14.2908 90.8301 14.4216 90.7001 14.51C90.5619 14.6125 90.3917 14.6622 90.2201 14.65H89.2201V12.7H90.2201C90.3895 12.6945 90.5566 12.7398 90.7001 12.83C90.8271 12.9128 90.9223 13.0361 90.9701 13.18C91.0324 13.3322 91.063 13.4955 91.0601 13.66C91.0611 13.8243 91.0306 13.9873 90.9701 14.14ZM91.6201 14.29C91.6822 14.0859 91.7126 13.8734 91.7101 13.66C91.7189 13.3835 91.6606 13.109 91.5401 12.86C91.4313 12.6365 91.2568 12.4516 91.0401 12.33C90.7881 12.196 90.5053 12.1304 90.2201 12.14H89.2201V10.03H88.5701V15.24H90.2401C90.4583 15.2418 90.675 15.2045 90.8801 15.13C91.057 15.0566 91.2169 14.9477 91.3501 14.81C91.4754 14.6654 91.5737 14.4994 91.6401 14.32" fill="#FFFFFF"/>
    <path d="M92.8199 10.03H92.1699V15.21H92.8199V10.03Z" fill="#FFFFFF"/>
    <path d="M96.9699 14.66H94.8399V12.82H96.6699V12.26H94.8399V10.6H96.9399V10.04H94.8399H94.7199H94.1899V15.21H94.7199H94.8399H96.9699V14.66Z" fill="#FFFFFF"/>
    <path d="M49.56 23.62H50.2099V19H51.57V18.43H50.2099H49.56H48.2V19H49.56V23.62Z" fill="#FFFFFF"/>
    <path d="M55.3 23.06H53.17V21.22H55V20.66H53.17V19H55.27V18.43H53.17H53.05H52.52V23.62H53.05H53.17H55.3V23.06Z" fill="#FFFFFF"/>
    <path d="M59.55 23.62L58.17 21L59.52 18.43H58.76L57.78 20.42L56.8 18.43H56.04L57.39 21L56.01 23.62H56.78L57.78 21.59L58.78 23.62H59.55Z" fill="#FFFFFF"/>
    <path d="M63.26 20.66H61.18V18.43H60.52V23.61H61.18V21.22H63.26V23.61H63.91V18.43H63.26V20.66Z" fill="#FFFFFF"/>
    <path d="M67.94 21.47C67.9459 21.7186 67.9224 21.9669 67.87 22.21C67.8394 22.392 67.7713 22.5657 67.67 22.72C67.5807 22.8456 67.46 22.9456 67.32 23.01C67.0251 23.13 66.6949 23.13 66.4 23.01C66.2626 22.9415 66.1428 22.8422 66.05 22.72C65.9457 22.5651 65.8711 22.3921 65.83 22.21C65.7775 21.9669 65.754 21.7186 65.76 21.47V20.57C65.7546 20.3214 65.7781 20.0731 65.83 19.83C65.8729 19.6515 65.9474 19.4822 66.05 19.33C66.1381 19.2071 66.2548 19.1076 66.39 19.04C66.5361 18.974 66.6946 18.9399 66.855 18.9399C67.0153 18.9399 67.1738 18.974 67.32 19.04C67.4571 19.1046 67.5745 19.2047 67.66 19.33C67.759 19.4829 67.8301 19.6522 67.87 19.83C67.9219 20.0731 67.9454 20.3214 67.94 20.57V21.47ZM68.12 18.92C67.9769 18.7339 67.7872 18.589 67.57 18.5C67.1115 18.3138 66.5985 18.3138 66.14 18.5C65.9244 18.5918 65.7353 18.7362 65.59 18.92C65.4232 19.1224 65.3005 19.3574 65.23 19.61C65.142 19.9358 65.1016 20.2726 65.11 20.61V21.51C65.1018 21.8473 65.1422 22.1841 65.23 22.51C65.309 22.7592 65.4308 22.9926 65.59 23.2C65.7406 23.3758 65.9285 23.5158 66.14 23.61C66.5985 23.7962 67.1115 23.7962 67.57 23.61C67.7845 23.521 67.9735 23.3801 68.12 23.2C68.2804 22.995 68.3993 22.7606 68.47 22.51C68.5577 22.1841 68.5981 21.8473 68.59 21.51V20.61C68.5984 20.2726 68.558 19.9358 68.47 19.61C68.4027 19.3581 68.2835 19.1231 68.12 18.92Z" fill="#FFFFFF"/>
    <path d="M72.24 18.43H70.24L70.16 20.86C70.16 21.18 70.16 21.46 70.16 21.7C70.1485 21.905 70.1217 22.1089 70.08 22.31C70.0547 22.4517 70.011 22.5896 69.95 22.72C69.9054 22.8134 69.8363 22.8929 69.75 22.95C69.6652 23.002 69.5692 23.0329 69.47 23.04H69.24V23.6H69.41C69.5854 23.6067 69.7601 23.5725 69.92 23.5C70.068 23.435 70.1958 23.3314 70.29 23.2C70.3993 23.0418 70.4805 22.8659 70.53 22.68C70.5984 22.4345 70.6452 22.1836 70.67 21.93C70.7123 21.5983 70.7357 21.2644 70.74 20.93L70.81 18.93H72.24V23.55H72.9V18.43H72.24Z" fill="#FFFFFF"/>
    <path d="M76.9 21.47C76.901 21.7184 76.8775 21.9662 76.83 22.21C76.7919 22.3915 76.7207 22.5643 76.62 22.72C76.5346 22.8453 76.4172 22.9454 76.28 23.01C76.1313 23.0724 75.9712 23.103 75.81 23.1C75.6553 23.1032 75.5017 23.0725 75.36 23.01C75.2184 22.9483 75.097 22.8477 75.01 22.72C74.9016 22.5674 74.8266 22.3936 74.79 22.21C74.7337 21.9675 74.7069 21.719 74.71 21.47V20.57C74.7074 20.3211 74.7343 20.0727 74.79 19.83C74.8285 19.6501 74.9034 19.4799 75.01 19.33C75.0955 19.2047 75.2129 19.1046 75.35 19.04C75.4913 18.9753 75.6446 18.9412 75.8 18.94C75.9621 18.9389 76.1224 18.9731 76.27 19.04C76.4089 19.1019 76.527 19.2026 76.61 19.33C76.7173 19.4785 76.7891 19.6495 76.82 19.83C76.8757 20.0727 76.9026 20.3211 76.9 20.57V21.47ZM77.08 18.92C76.9327 18.7382 76.7442 18.5942 76.53 18.5C76.2983 18.4057 76.0502 18.3582 75.8 18.36C75.5595 18.3581 75.3213 18.4057 75.1 18.5C74.8814 18.5915 74.689 18.7358 74.54 18.92C74.3765 19.1231 74.2573 19.3581 74.19 19.61C74.0984 19.9353 74.0546 20.2721 74.06 20.61V21.51C74.0549 21.8479 74.0986 22.1847 74.19 22.51C74.2609 22.7625 74.3835 22.9975 74.55 23.2C74.6985 23.3781 74.8869 23.5186 75.1 23.61C75.5585 23.7962 76.0715 23.7962 76.53 23.61C76.7431 23.5186 76.9316 23.3781 77.08 23.2C77.2369 22.9942 77.3524 22.7598 77.42 22.51C77.5078 22.1842 77.5482 21.8474 77.54 21.51V20.61C77.5484 20.2726 77.508 19.9358 77.42 19.61C77.356 19.3588 77.2402 19.1238 77.08 18.92Z" fill="#FFFFFF"/>
    <path d="M79.43 19H81.47V18.43H78.78V23.62H79.43V19Z" fill="#FFFFFF"/>
    <path d="M84.9901 19.62V23.62H85.6501V18.43H84.9901L82.9701 22.43V18.43H82.3201V23.62H82.9701L84.9901 19.62Z" fill="#FFFFFF"/>
    <path d="M87.67 22.43V18.43H87.02V23.61H87.67L89.69 19.62V23.61H90.34V18.43H89.69L87.67 22.43Z" fill="#FFFFFF"/>
    <path d="M52.37 26.84H52.09L50.74 31.06L49.38 26.84H49.1H48.75H48.54V32.02H49.19V30L49.13 27.98L50.48 32.02H50.98L52.34 27.99L52.27 30V32.02H52.92V26.84H52.72H52.37Z" fill="#FFFFFF"/>
    <path d="M55.0601 30.09L55.7701 27.74L56.4701 30.09H55.0601ZM55.9101 26.83H55.4901L53.8201 32.01H54.4901L54.8901 30.66H56.6401L57.0501 32.01H57.7201L56.0501 26.83H55.9101Z" fill="#FFFFFF"/>
    <path d="M62.7499 31.46H61.3599V26.84H60.7099V31.46H59.2999V26.84H58.6499V32.02H63.3999V26.84H62.7499V31.46Z" fill="#FFFFFF"/>
    <path d="M65.42 30.83V26.84H64.77V32.02H65.42L67.44 28.02V32.02H68.09V26.84H67.44L65.42 30.83Z" fill="#FFFFFF"/>
    <path d="M72.1699 29.06H70.0899V26.84H69.4299V32.02H70.0899V29.62H72.1699V32.02H72.8199V26.84H72.1699V29.06Z" fill="#FFFFFF"/>
    <path d="M76.8499 29.87C76.8558 30.1186 76.8323 30.367 76.7799 30.61C76.7493 30.792 76.6812 30.9657 76.5799 31.12C76.4906 31.2457 76.3699 31.3457 76.2299 31.41C75.935 31.5301 75.6048 31.5301 75.3099 31.41C75.1725 31.3415 75.0528 31.2423 74.9599 31.12C74.8557 30.9651 74.7811 30.7922 74.7399 30.61C74.6874 30.367 74.6639 30.1186 74.6699 29.87V28.97C74.6653 28.7248 74.6887 28.4799 74.7399 28.24C74.7828 28.0616 74.8573 27.8922 74.9599 27.74C75.048 27.6171 75.1647 27.5176 75.2999 27.45C75.446 27.384 75.6045 27.3499 75.7649 27.3499C75.9252 27.3499 76.0837 27.384 76.2299 27.45C76.3671 27.5146 76.4845 27.6148 76.5699 27.74C76.6689 27.8929 76.74 28.0622 76.7799 28.24C76.8318 28.4831 76.8553 28.7315 76.8499 28.98V29.87ZM77.0299 27.32C76.8868 27.1339 76.6971 26.989 76.4799 26.9C76.0214 26.7138 75.5084 26.7138 75.0499 26.9C74.8343 26.9918 74.6452 27.1362 74.4999 27.32C74.3331 27.5224 74.2104 27.7574 74.1399 28.01C74.0519 28.3358 74.0115 28.6726 74.0199 29.01V29.91C74.0117 30.2474 74.0522 30.5842 74.1399 30.91C74.2189 31.1592 74.3407 31.3927 74.4999 31.6C74.6505 31.7758 74.8384 31.9158 75.0499 32.01C75.5084 32.1962 76.0214 32.1962 76.4799 32.01C76.6944 31.9211 76.8834 31.7802 77.0299 31.6C77.1904 31.395 77.3092 31.1606 77.3799 30.91C77.4676 30.5842 77.508 30.2474 77.4999 29.91V29.01C77.5083 28.6726 77.4679 28.3358 77.3799 28.01C77.3126 27.7581 77.1934 27.5231 77.0299 27.32Z" fill="#FFFFFF"/>
    <path d="M79.24 28.24C79.2741 28.059 79.342 27.886 79.44 27.73C79.522 27.5943 79.6396 27.4837 79.78 27.41C79.9304 27.3288 80.0991 27.2875 80.27 27.29C80.4543 27.2803 80.6378 27.3218 80.8 27.41C80.9385 27.5052 81.0434 27.6417 81.1 27.8C81.1769 28.012 81.2207 28.2346 81.23 28.46H81.88C81.88 28.135 81.8082 27.8141 81.67 27.52C81.5537 27.2733 81.3655 27.0676 81.13 26.93C80.8653 26.7905 80.5691 26.7216 80.27 26.73C80.0186 26.7254 79.7692 26.7766 79.54 26.88C79.3225 26.9824 79.131 27.1329 78.98 27.32C78.8231 27.5258 78.7076 27.7602 78.64 28.01C78.5569 28.3027 78.5165 28.6058 78.52 28.91V29.91C78.5165 30.2142 78.5569 30.5173 78.64 30.81C78.7076 31.0598 78.8231 31.2942 78.98 31.5C79.1199 31.686 79.3014 31.8367 79.51 31.94C79.7293 32.0412 79.9684 32.0925 80.21 32.09C80.5252 32.0995 80.8378 32.0308 81.12 31.89C81.3591 31.7494 81.5506 31.5404 81.67 31.29C81.8037 31.0014 81.8752 30.688 81.88 30.37H81.24C81.2291 30.5993 81.1818 30.8255 81.1 31.04C81.0459 31.1999 80.9358 31.3348 80.79 31.42C80.6124 31.5044 80.4162 31.5422 80.22 31.53C80.0552 31.5389 79.8915 31.4991 79.7492 31.4155C79.6069 31.3319 79.4924 31.2082 79.42 31.06C79.3353 30.8962 79.2747 30.7211 79.24 30.54C79.1988 30.3292 79.1787 30.1148 79.18 29.9V28.9C79.1781 28.6785 79.1982 28.4575 79.24 28.24Z" fill="#FFFFFF"/>
    <path d="M83.85 26.84H82.49V27.4H83.85V32.02H84.5V27.4H85.86V26.84H84.5H83.85Z" fill="#FFFFFF"/>
    <path d="M89.17 28.94C89.1175 29.0842 89.0191 29.2072 88.89 29.29C88.7332 29.3834 88.5523 29.4286 88.37 29.42H87.37V27.42H88.37C88.5549 27.4127 88.7373 27.4653 88.89 27.57C89.0203 27.6647 89.1181 27.7975 89.17 27.95C89.2348 28.1088 89.2687 28.2785 89.27 28.45C89.2695 28.6281 89.2356 28.8045 89.17 28.97M89.17 27.06C88.9086 26.9213 88.6158 26.8524 88.32 26.86H86.72V32.04H87.37V30.04H88.37C88.6636 30.0487 88.9551 29.987 89.22 29.86C89.4453 29.7385 89.627 29.5497 89.74 29.32C89.867 29.0551 89.9287 28.7636 89.92 28.47C89.9254 28.1863 89.8638 27.9053 89.74 27.65C89.6219 27.4187 89.4419 27.2248 89.22 27.09" fill="#FFFFFF"/>
    <path d="M93.51 29.87C93.516 30.1186 93.4925 30.367 93.44 30.61C93.4064 30.7928 93.3349 30.9666 93.23 31.12C93.147 31.2474 93.0289 31.3481 92.89 31.41C92.7416 31.4732 92.5813 31.5039 92.42 31.5C92.2653 31.5032 92.1117 31.4725 91.97 31.41C91.83 31.3457 91.7093 31.2457 91.62 31.12C91.5158 30.9651 91.4412 30.7922 91.4 30.61C91.3476 30.367 91.3241 30.1186 91.33 29.87V28.97C91.3246 28.7215 91.3481 28.4731 91.4 28.23C91.443 28.0516 91.5175 27.8822 91.62 27.73C91.7081 27.6071 91.8248 27.5076 91.96 27.44C92.1062 27.374 92.2647 27.3399 92.425 27.3399C92.5854 27.3399 92.7439 27.374 92.89 27.44C93.0272 27.5046 93.1446 27.6048 93.23 27.73C93.3291 27.8829 93.4002 28.0522 93.44 28.23C93.4919 28.4731 93.5154 28.7215 93.51 28.97V29.87ZM93.69 27.32C93.547 27.1339 93.3572 26.989 93.14 26.9C92.6816 26.7138 92.1685 26.7138 91.71 26.9C91.4945 26.9918 91.3053 27.1362 91.16 27.32C90.9932 27.5224 90.8706 27.7574 90.8 28.01C90.712 28.3358 90.6716 28.6726 90.68 29.01V29.91C90.6719 30.2474 90.7123 30.5842 90.8 30.91C90.879 31.1592 91.0009 31.3927 91.16 31.6C91.3107 31.7758 91.4986 31.9158 91.71 32.01C92.1685 32.1962 92.6816 32.1962 93.14 32.01C93.3545 31.9211 93.5435 31.7802 93.69 31.6C93.8505 31.395 93.9694 31.1606 94.04 30.91C94.1278 30.5842 94.1682 30.2474 94.16 29.91V29.01C94.1685 28.6726 94.128 28.3358 94.04 28.01C93.9728 27.7581 93.8535 27.5231 93.69 27.32Z" fill="#FFFFFF"/>
    <path d="M95.86 29.62H97.69V29.06H95.86V27.4H97.95V26.84H95.86H95.74H95.2V32.02H95.74H95.86H97.99V31.46H95.86V29.62Z" fill="#FFFFFF"/>
    <path d="M101.74 29.06H99.66V26.84H99.01V32.02H99.66V29.62H101.74V32.02H102.4V26.84H101.74V29.06Z" fill="#FFFFFF"/>
    <path d="M104.39 30.83V26.84H103.74V32.02H104.39L106.41 28.02V32.02H107.06V26.84H106.41L104.39 30.83Z" fill="#FFFFFF"/>
    <path d="M109.71 29.43C109.531 29.4373 109.354 29.3921 109.2 29.3C109.069 29.2055 108.965 29.0778 108.9 28.93C108.829 28.7589 108.795 28.575 108.8 28.39C108.786 28.1284 108.864 27.8701 109.02 27.66C109.106 27.5666 109.211 27.4938 109.329 27.4471C109.447 27.4003 109.574 27.3808 109.7 27.39H110.46V29.39L109.71 29.43ZM109.71 26.83C109.423 26.8222 109.138 26.8839 108.88 27.01C108.652 27.1297 108.464 27.3141 108.34 27.54C108.21 27.8041 108.144 28.0956 108.15 28.39C108.14 28.7161 108.231 29.0373 108.41 29.31C108.562 29.5184 108.765 29.6837 109 29.79L108 32.01H108.7L109.59 30.01H110.49V32.01H111.14V26.83H109.71Z" fill="#FFFFFF"/>
  </symbol>

  <symbol id="logo-dark" viewBox="0 0 112 43" fill="none">
    <path d="M34.4 24.69C33.5942 27.6206 31.8487 30.2057 29.4316 32.0483C27.0145 33.891 24.0594 34.8893 21.02 34.89C20.1342 34.888 19.2504 34.8043 18.38 34.64C18.3612 34.6368 18.3418 34.6405 18.3255 34.6503C18.3091 34.6601 18.2968 34.6755 18.2907 34.6936C18.2847 34.7117 18.2853 34.7314 18.2925 34.7491C18.2997 34.7667 18.313 34.7813 18.33 34.79C20.4173 35.6492 22.6528 36.0908 24.91 36.09C26.4003 36.0957 27.8831 35.88 29.31 35.45C30.4264 34.4258 31.3777 33.235 32.13 31.92C33.4166 29.7096 34.1922 27.2392 34.4 24.69Z" fill="#00B7CE"/>
    <path d="M29.8599 36.31C26.1799 39.58 21.5499 40.38 17.9099 40.38C15.7925 40.3733 13.6826 40.1285 11.6199 39.65C11.5299 39.65 11.4799 39.75 11.5699 39.8C14.4986 41.2843 17.7366 42.0553 21.0199 42.05C26.3876 42.0561 31.5538 40.0065 35.4574 36.3223C39.3611 32.6382 41.7058 27.599 42.0099 22.24C42.0099 22.2188 42.0015 22.1984 41.9865 22.1834C41.9715 22.1684 41.9511 22.16 41.9299 22.16C41.9087 22.16 41.8884 22.1684 41.8734 22.1834C41.8584 22.1984 41.8499 22.2188 41.8499 22.24C41.1201 24.6734 40.0531 26.9926 38.6799 29.13C36.6584 32.4799 33.5432 35.03 29.8599 36.35" fill="#00B7CE"/>
    <path d="M13.9201 33.39C10.2227 31.8685 7.13713 29.1594 5.15009 25.69C4.80526 25.0671 4.50128 24.4224 4.24009 23.76C4.2344 23.7447 4.22417 23.7315 4.21077 23.7221C4.19736 23.7128 4.18142 23.7078 4.16509 23.7078C4.14876 23.7078 4.13282 23.7128 4.11941 23.7221C4.106 23.7315 4.09577 23.7447 4.09009 23.76C4.09009 26.5504 4.77696 29.2979 6.09009 31.76C7.36179 34.2161 9.01196 36.4568 10.9801 38.4C13.2412 39.0213 15.5752 39.3374 17.9201 39.34C21.249 39.4206 24.5337 38.5648 27.4001 36.87C26.5792 36.9944 25.7503 37.0579 24.9201 37.06C20.9435 37.0774 17.0739 35.7723 13.9201 33.35" fill="#00B7CE"/>
    <path d="M8.85999 37.66C7.70867 36.3378 6.68729 34.9079 5.80999 33.39C3.98999 30.24 2.36999 25.83 3.35999 21.01C2.67715 17.1619 3.34108 13.1959 5.23999 9.78C6.40515 7.5231 7.87935 5.4397 9.61999 3.59C9.62787 3.58278 9.63425 3.57408 9.63876 3.56439C9.64328 3.5547 9.64584 3.54422 9.64631 3.53354C9.64677 3.52286 9.64513 3.51219 9.64147 3.50215C9.63781 3.49211 9.63221 3.48288 9.62499 3.475C9.61777 3.46712 9.60906 3.46074 9.59937 3.45623C9.58969 3.45171 9.5792 3.44915 9.56852 3.44869C9.55785 3.44822 9.54718 3.44986 9.53714 3.45352C9.52709 3.45718 9.51787 3.46278 9.50999 3.47C6.60317 5.38194 4.21693 7.98614 2.56571 11.0486C0.914498 14.111 0.0500488 17.5358 0.0500488 21.015C0.0500488 24.4942 0.914498 27.919 2.56571 30.9814C4.21693 34.0439 6.60317 36.6481 9.50999 38.56C9.5259 38.5746 9.54696 38.5823 9.56852 38.5813C9.59009 38.5804 9.6104 38.5709 9.62499 38.555C9.63958 38.5391 9.64724 38.518 9.64631 38.4965C9.64537 38.4749 9.6359 38.4546 9.61999 38.44C9.41999 38.23 9.19999 37.97 8.92999 37.66" fill="#00B7CE"/>
    <path d="M34.15 16.56C34.15 16.5812 34.1584 16.6016 34.1734 16.6166C34.1884 16.6316 34.2088 16.64 34.23 16.64C34.2512 16.64 34.2716 16.6316 34.2866 16.6166C34.3016 16.6016 34.31 16.5812 34.31 16.56C34.0108 14.3042 33.27 12.1294 32.13 10.16C31.3802 8.84621 30.4286 7.65839 29.31 6.64001C27.8847 6.20188 26.4011 5.98272 24.91 5.99001C22.6561 5.9733 20.4208 6.39795 18.33 7.24001C18.313 7.24875 18.2997 7.26327 18.2925 7.28096C18.2853 7.29864 18.2847 7.31832 18.2907 7.33643C18.2968 7.35455 18.3091 7.3699 18.3255 7.37973C18.3418 7.38956 18.3612 7.3932 18.38 7.39001C19.2504 7.22571 20.1342 7.14202 21.02 7.14001C23.9172 7.14071 26.7414 8.04862 29.0963 9.7363C31.4511 11.424 33.2184 13.8067 34.15 16.55" fill="#00B7CE"/>
    <path d="M29.86 5.73C33.538 7.04941 36.6492 9.59559 38.67 12.94C40.0481 15.0832 41.1185 17.4092 41.85 19.85C41.85 19.8712 41.8584 19.8916 41.8734 19.9066C41.8884 19.9216 41.9088 19.93 41.93 19.93C41.9512 19.93 41.9716 19.9216 41.9866 19.9066C42.0016 19.8916 42.01 19.8712 42.01 19.85C41.7082 14.4875 39.3632 9.44441 35.4571 5.75786C31.5511 2.07131 26.381 0.021515 21.01 0.0300004C17.7366 0.0151155 14.5059 0.772268 11.58 2.24C11.563 2.24874 11.5497 2.26327 11.5425 2.28095C11.5353 2.29863 11.5347 2.31831 11.5407 2.33643C11.5468 2.35454 11.5591 2.3699 11.5755 2.37972C11.5918 2.38955 11.6112 2.39319 11.63 2.39C13.6893 1.91179 15.7959 1.66691 17.91 1.66C21.55 1.66 26.18 2.46 29.86 5.73Z" fill="#00B7CE"/>
    <path d="M5.15009 16.35C7.13713 12.8806 10.2227 10.1714 13.9201 8.65001C17.0748 6.23062 20.9445 4.92899 24.9201 4.95001C25.6188 4.94766 26.317 4.99108 27.0101 5.08001C27.0289 5.0832 27.0483 5.07956 27.0646 5.06973C27.081 5.05991 27.0933 5.04455 27.0994 5.02643C27.1054 5.00832 27.1048 4.98864 27.0976 4.97096C27.0904 4.95327 27.0771 4.93875 27.0601 4.93001C24.2689 3.37561 21.1142 2.59213 17.9201 2.66001C15.5751 2.66063 13.2408 2.9768 10.9801 3.60001C9.00541 5.53753 7.35443 7.77936 6.09009 10.24C4.77696 12.7021 4.09009 15.4496 4.09009 18.24C4.09577 18.2553 4.106 18.2685 4.11941 18.2778C4.13282 18.2872 4.14876 18.2922 4.16509 18.2922C4.18142 18.2922 4.19736 18.2872 4.21077 18.2778C4.22417 18.2685 4.2344 18.2553 4.24009 18.24C4.51819 17.5784 4.83542 16.9339 5.19009 16.31" fill="#00B7CE"/>
    <path d="M37.8299 13.48C36.364 11.0968 34.33 9.11426 31.9099 7.70999C31.8937 7.70164 31.8752 7.69906 31.8573 7.70267C31.8395 7.70628 31.8234 7.71588 31.8118 7.72987C31.8001 7.74385 31.7936 7.7614 31.7932 7.7796C31.7929 7.79781 31.7988 7.81558 31.8099 7.82999C32.2442 8.39726 32.6417 8.99182 32.9999 9.60999C35.0113 13.0527 35.8172 17.0678 35.2899 21.02C35.8172 24.9722 35.0113 28.9873 32.9999 32.43C32.6392 33.0562 32.2419 33.6606 31.8099 34.24C31.7988 34.2544 31.7929 34.2722 31.7932 34.2904C31.7936 34.3086 31.8001 34.3261 31.8118 34.3401C31.8234 34.3541 31.8395 34.3637 31.8573 34.3673C31.8752 34.3709 31.8937 34.3683 31.9099 34.36C34.3375 32.9403 36.3751 30.9406 37.8399 28.54C39.3199 26.2191 40.4298 23.6821 41.1299 21.02C40.4332 18.3488 39.3195 15.8042 37.8299 13.48Z" fill="#00B7CE"/>
    <path d="M10.5799 11.89C10.5958 11.8754 10.6053 11.8551 10.6062 11.8335C10.6071 11.812 10.5995 11.7909 10.5849 11.775C10.5703 11.7591 10.55 11.7496 10.5284 11.7487C10.5069 11.7477 10.4858 11.7554 10.4699 11.77C8.66802 13.1565 7.15893 14.8865 6.02988 16.86C5.26806 18.153 4.71144 19.5563 4.37988 21.02C4.70817 22.5036 5.2648 23.9272 6.02988 25.24C7.30036 27.4548 9.04964 29.3579 11.1499 30.81C8.6883 28.3186 7.26117 24.9878 7.15542 21.487C7.04968 17.9863 8.27316 14.5754 10.5799 11.94" fill="#00B7CE"/>
    <path d="M48.8799 14.69C49.0235 14.8765 49.2083 15.0271 49.4199 15.13C49.6389 15.2322 49.8783 15.2835 50.1199 15.28C50.4319 15.2895 50.7413 15.2207 51.0199 15.08C51.259 14.9393 51.4506 14.7304 51.5699 14.48C51.7071 14.1922 51.782 13.8787 51.7899 13.56H51.1299C51.1217 13.7887 51.0779 14.0148 50.9999 14.23C50.9428 14.3882 50.8335 14.5222 50.6899 14.61C50.5109 14.6898 50.3159 14.7275 50.1199 14.72C49.949 14.7225 49.7803 14.6812 49.6299 14.6C49.4942 14.5137 49.3838 14.3929 49.3099 14.25C49.2246 14.0865 49.164 13.9112 49.1299 13.73C49.1139 13.5203 49.1139 13.3097 49.1299 13.1V12.1C49.1282 11.8786 49.1483 11.6575 49.1899 11.44C49.2329 11.2616 49.3002 11.09 49.3899 10.93C49.478 10.7931 49.5982 10.6799 49.7399 10.6C49.8913 10.5222 50.0599 10.4844 50.2299 10.49C50.4109 10.4821 50.5907 10.5236 50.7499 10.61C50.8882 10.7011 50.9934 10.8344 51.0499 10.99C51.1313 11.2042 51.1753 11.4309 51.1799 11.66H51.8399C51.8313 11.336 51.76 11.0168 51.6299 10.72C51.5132 10.4704 51.3208 10.2639 51.0799 10.13C50.8189 9.99045 50.5259 9.92151 50.2299 9.92999C49.9753 9.92555 49.7228 9.97674 49.4899 10.08C49.2737 10.1799 49.0849 10.3309 48.9399 10.52C48.7795 10.725 48.6606 10.9594 48.5899 11.21C48.5068 11.5026 48.4664 11.8058 48.4699 12.11V13.11C48.4664 13.4142 48.5068 13.7173 48.5899 14.01C48.6576 14.2598 48.773 14.4942 48.9299 14.7" fill="#6D6E71"/>
    <path d="M53.3899 12.17C53.3823 11.9208 53.4092 11.6718 53.4699 11.43C53.5098 11.2522 53.5809 11.0829 53.6799 10.93C53.7692 10.8044 53.8899 10.7044 54.0299 10.64C54.1692 10.5694 54.3239 10.535 54.4799 10.54C54.6424 10.5346 54.8037 10.569 54.9499 10.64C55.0888 10.7019 55.2069 10.8026 55.2899 10.93C55.3972 11.0785 55.469 11.2495 55.4999 11.43C55.5518 11.6731 55.5753 11.9215 55.5699 12.17V13.07C55.5759 13.3186 55.5524 13.567 55.4999 13.81C55.4675 13.9915 55.3995 14.1648 55.2999 14.32C55.2145 14.4453 55.0971 14.5454 54.9599 14.61C54.811 14.6715 54.6511 14.7021 54.4899 14.7C54.332 14.7022 54.1754 14.6715 54.0299 14.61C53.8927 14.5454 53.7754 14.4453 53.6899 14.32C53.5835 14.1663 53.5087 13.9929 53.4699 13.81C53.4087 13.5683 53.3818 13.3192 53.3899 13.07V12.17ZM53.2399 14.73C53.3864 14.9102 53.5754 15.0511 53.7899 15.14C54.0132 15.239 54.2558 15.2868 54.4999 15.28C54.7539 15.2889 55.0067 15.2411 55.2399 15.14C55.4514 15.0458 55.6393 14.9058 55.7899 14.73C55.9468 14.5242 56.0623 14.2898 56.1299 14.04C56.2176 13.7141 56.2581 13.3774 56.2499 13.04V12.14C56.2583 11.8026 56.2179 11.4658 56.1299 11.14C56.0626 10.8881 55.9434 10.6531 55.7799 10.45C55.6383 10.2666 55.4525 10.1221 55.2399 10.03C55.0082 9.93573 54.7601 9.88816 54.5099 9.89001C54.2663 9.88895 54.0249 9.93654 53.7999 10.03C53.5858 10.1242 53.3972 10.2682 53.2499 10.45C53.0864 10.6531 52.9672 10.8881 52.8999 11.14C52.803 11.4642 52.7591 11.8018 52.7699 12.14V13.04C52.7594 13.3781 52.8033 13.7158 52.8999 14.04C52.9708 14.2925 53.0933 14.5275 53.2599 14.73" fill="#6D6E71"/>
    <path d="M58.8899 10.59C59.0385 10.5836 59.1864 10.6146 59.3199 10.68C59.4359 10.7313 59.5286 10.824 59.5799 10.94C59.6367 11.0866 59.6639 11.2429 59.6599 11.4C59.6672 11.5562 59.6326 11.7116 59.5599 11.85C59.5002 11.971 59.4063 12.0718 59.2899 12.14C59.1704 12.2056 59.0363 12.24 58.8999 12.24H58.0699V10.59H58.8899ZM59.7599 13.72C59.7655 13.8922 59.7312 14.0633 59.6599 14.22C59.6016 14.3499 59.5081 14.4607 59.3899 14.54C59.2592 14.615 59.1106 14.6531 58.9599 14.65H58.0699V12.79H58.9799C59.1373 12.7832 59.2934 12.8214 59.4299 12.9C59.5475 12.9793 59.6354 13.0954 59.6799 13.23C59.7348 13.3875 59.7618 13.5533 59.7599 13.72ZM58.0699 15.24H58.9599C59.2263 15.2441 59.49 15.1859 59.7299 15.07C59.9413 14.9505 60.1146 14.7737 60.2299 14.56C60.3571 14.3095 60.419 14.0309 60.4099 13.75C60.4158 13.538 60.3783 13.3271 60.2999 13.13C60.2321 12.9532 60.1181 12.7978 59.9699 12.68C59.8759 12.6022 59.767 12.5444 59.6499 12.51L59.7699 12.44C59.9346 12.3336 60.0717 12.1897 60.1699 12.02C60.2677 11.8427 60.3161 11.6424 60.3099 11.44C60.3146 11.2298 60.2842 11.0202 60.2199 10.82C60.159 10.658 60.0634 10.5113 59.9399 10.39C59.8118 10.2723 59.6576 10.1866 59.4899 10.14C59.2947 10.0849 59.0927 10.058 58.8899 10.06H57.4099V15.24H58.0699Z" fill="#6D6E71"/>
    <path d="M64.0301 12.14C63.9737 12.2849 63.872 12.4077 63.7401 12.49C63.5842 12.5857 63.4026 12.6311 63.2201 12.62H62.2401V10.62H63.2401C63.4254 10.6097 63.6087 10.6626 63.7601 10.77C63.8937 10.8637 63.995 10.9964 64.0501 11.15C64.1114 11.3095 64.142 11.4791 64.1401 11.65C64.1419 11.8274 64.1114 12.0036 64.0501 12.17M64.6201 10.82C64.4984 10.588 64.315 10.3942 64.0901 10.26C63.829 10.1205 63.536 10.0515 63.2401 10.06H61.5701V15.24H62.2401V13.24H63.2401C63.5338 13.2499 63.8255 13.1881 64.0901 13.06C64.3179 12.9385 64.5029 12.75 64.6201 12.52C64.7471 12.2551 64.8088 11.9636 64.8001 11.67C64.8055 11.3863 64.7439 11.1053 64.6201 10.85" fill="#6D6E71"/>
    <path d="M66.45 15.21H68.58V14.66H66.45V12.82H68.28V12.26H66.45V10.6H68.55V10.03H66.45H66.34H65.8V15.21H66.34H66.45Z" fill="#6D6E71"/>
    <path d="M73.4301 10.03H73.1501L71.8001 14.26L70.4401 10.03H70.1601H69.8101H69.6001V15.21H70.2501V13.19L70.1901 11.18L71.5501 15.21H72.0401L73.4001 11.19L73.3401 13.19V15.21H73.9901V10.03H73.7801H73.4301Z" fill="#6D6E71"/>
    <path d="M75.94 12.82H77.77V12.26H75.94V10.6H78.04V10.03H75.94H75.83H75.29V15.21H75.83H75.94H78.08V14.66H75.94V12.82Z" fill="#6D6E71"/>
    <path d="M81.8301 12.26H79.7501V10.04H79.0901V15.21H79.7501V12.82H81.8301V15.21H82.4801V10.04H81.8301V12.26Z" fill="#6D6E71"/>
    <path d="M87.19 15.21V10.03H86.53V12.26H84.45V10.03H83.8V15.21H84.45V12.82H86.53V15.21H87.19Z" fill="#6D6E71"/>
    <path d="M90.9701 14.14C90.9256 14.2908 90.8301 14.4216 90.7001 14.51C90.5619 14.6125 90.3917 14.6622 90.2201 14.65H89.2201V12.7H90.2201C90.3895 12.6945 90.5566 12.7398 90.7001 12.83C90.8271 12.9128 90.9223 13.0361 90.9701 13.18C91.0324 13.3322 91.063 13.4955 91.0601 13.66C91.0611 13.8243 91.0306 13.9873 90.9701 14.14ZM91.6201 14.29C91.6822 14.0859 91.7126 13.8734 91.7101 13.66C91.7189 13.3835 91.6606 13.109 91.5401 12.86C91.4313 12.6365 91.2568 12.4516 91.0401 12.33C90.7881 12.196 90.5053 12.1304 90.2201 12.14H89.2201V10.03H88.5701V15.24H90.2401C90.4583 15.2418 90.675 15.2045 90.8801 15.13C91.057 15.0566 91.2169 14.9477 91.3501 14.81C91.4754 14.6654 91.5737 14.4994 91.6401 14.32" fill="#6D6E71"/>
    <path d="M92.8199 10.03H92.1699V15.21H92.8199V10.03Z" fill="#6D6E71"/>
    <path d="M96.9699 14.66H94.8399V12.82H96.6699V12.26H94.8399V10.6H96.9399V10.04H94.8399H94.7199H94.1899V15.21H94.7199H94.8399H96.9699V14.66Z" fill="#6D6E71"/>
    <path d="M49.56 23.62H50.2099V19H51.57V18.43H50.2099H49.56H48.2V19H49.56V23.62Z" fill="#6D6E71"/>
    <path d="M55.3 23.06H53.17V21.22H55V20.66H53.17V19H55.27V18.43H53.17H53.05H52.52V23.62H53.05H53.17H55.3V23.06Z" fill="#6D6E71"/>
    <path d="M59.55 23.62L58.17 21L59.52 18.43H58.76L57.78 20.42L56.8 18.43H56.04L57.39 21L56.01 23.62H56.78L57.78 21.59L58.78 23.62H59.55Z" fill="#6D6E71"/>
    <path d="M63.26 20.66H61.18V18.43H60.52V23.61H61.18V21.22H63.26V23.61H63.91V18.43H63.26V20.66Z" fill="#6D6E71"/>
    <path d="M67.94 21.47C67.9459 21.7186 67.9224 21.9669 67.87 22.21C67.8394 22.392 67.7713 22.5657 67.67 22.72C67.5807 22.8456 67.46 22.9456 67.32 23.01C67.0251 23.13 66.6949 23.13 66.4 23.01C66.2626 22.9415 66.1428 22.8422 66.05 22.72C65.9457 22.5651 65.8711 22.3921 65.83 22.21C65.7775 21.9669 65.754 21.7186 65.76 21.47V20.57C65.7546 20.3214 65.7781 20.0731 65.83 19.83C65.8729 19.6515 65.9474 19.4822 66.05 19.33C66.1381 19.2071 66.2548 19.1076 66.39 19.04C66.5361 18.974 66.6946 18.9399 66.855 18.9399C67.0153 18.9399 67.1738 18.974 67.32 19.04C67.4571 19.1046 67.5745 19.2047 67.66 19.33C67.759 19.4829 67.8301 19.6522 67.87 19.83C67.9219 20.0731 67.9454 20.3214 67.94 20.57V21.47ZM68.12 18.92C67.9769 18.7339 67.7872 18.589 67.57 18.5C67.1115 18.3138 66.5985 18.3138 66.14 18.5C65.9244 18.5918 65.7353 18.7362 65.59 18.92C65.4232 19.1224 65.3005 19.3574 65.23 19.61C65.142 19.9358 65.1016 20.2726 65.11 20.61V21.51C65.1018 21.8473 65.1422 22.1841 65.23 22.51C65.309 22.7592 65.4308 22.9926 65.59 23.2C65.7406 23.3758 65.9285 23.5158 66.14 23.61C66.5985 23.7962 67.1115 23.7962 67.57 23.61C67.7845 23.521 67.9735 23.3801 68.12 23.2C68.2804 22.995 68.3993 22.7606 68.47 22.51C68.5577 22.1841 68.5981 21.8473 68.59 21.51V20.61C68.5984 20.2726 68.558 19.9358 68.47 19.61C68.4027 19.3581 68.2835 19.1231 68.12 18.92Z" fill="#6D6E71"/>
    <path d="M72.24 18.43H70.24L70.16 20.86C70.16 21.18 70.16 21.46 70.16 21.7C70.1485 21.905 70.1217 22.1089 70.08 22.31C70.0547 22.4517 70.011 22.5896 69.95 22.72C69.9054 22.8134 69.8363 22.8929 69.75 22.95C69.6652 23.002 69.5692 23.0329 69.47 23.04H69.24V23.6H69.41C69.5854 23.6067 69.7601 23.5725 69.92 23.5C70.068 23.435 70.1958 23.3314 70.29 23.2C70.3993 23.0418 70.4805 22.8659 70.53 22.68C70.5984 22.4345 70.6452 22.1836 70.67 21.93C70.7123 21.5983 70.7357 21.2644 70.74 20.93L70.81 18.93H72.24V23.55H72.9V18.43H72.24Z" fill="#6D6E71"/>
    <path d="M76.9 21.47C76.901 21.7184 76.8775 21.9662 76.83 22.21C76.7919 22.3915 76.7207 22.5643 76.62 22.72C76.5346 22.8453 76.4172 22.9454 76.28 23.01C76.1313 23.0724 75.9712 23.103 75.81 23.1C75.6553 23.1032 75.5017 23.0725 75.36 23.01C75.2184 22.9483 75.097 22.8477 75.01 22.72C74.9016 22.5674 74.8266 22.3936 74.79 22.21C74.7337 21.9675 74.7069 21.719 74.71 21.47V20.57C74.7074 20.3211 74.7343 20.0727 74.79 19.83C74.8285 19.6501 74.9034 19.4799 75.01 19.33C75.0955 19.2047 75.2129 19.1046 75.35 19.04C75.4913 18.9753 75.6446 18.9412 75.8 18.94C75.9621 18.9389 76.1224 18.9731 76.27 19.04C76.4089 19.1019 76.527 19.2026 76.61 19.33C76.7173 19.4785 76.7891 19.6495 76.82 19.83C76.8757 20.0727 76.9026 20.3211 76.9 20.57V21.47ZM77.08 18.92C76.9327 18.7382 76.7442 18.5942 76.53 18.5C76.2983 18.4057 76.0502 18.3582 75.8 18.36C75.5595 18.3581 75.3213 18.4057 75.1 18.5C74.8814 18.5915 74.689 18.7358 74.54 18.92C74.3765 19.1231 74.2573 19.3581 74.19 19.61C74.0984 19.9353 74.0546 20.2721 74.06 20.61V21.51C74.0549 21.8479 74.0986 22.1847 74.19 22.51C74.2609 22.7625 74.3835 22.9975 74.55 23.2C74.6985 23.3781 74.8869 23.5186 75.1 23.61C75.5585 23.7962 76.0715 23.7962 76.53 23.61C76.7431 23.5186 76.9316 23.3781 77.08 23.2C77.2369 22.9942 77.3524 22.7598 77.42 22.51C77.5078 22.1842 77.5482 21.8474 77.54 21.51V20.61C77.5484 20.2726 77.508 19.9358 77.42 19.61C77.356 19.3588 77.2402 19.1238 77.08 18.92Z" fill="#6D6E71"/>
    <path d="M79.43 19H81.47V18.43H78.78V23.62H79.43V19Z" fill="#6D6E71"/>
    <path d="M84.9901 19.62V23.62H85.6501V18.43H84.9901L82.9701 22.43V18.43H82.3201V23.62H82.9701L84.9901 19.62Z" fill="#6D6E71"/>
    <path d="M87.67 22.43V18.43H87.02V23.61H87.67L89.69 19.62V23.61H90.34V18.43H89.69L87.67 22.43Z" fill="#6D6E71"/>
    <path d="M52.37 26.84H52.09L50.74 31.06L49.38 26.84H49.1H48.75H48.54V32.02H49.19V30L49.13 27.98L50.48 32.02H50.98L52.34 27.99L52.27 30V32.02H52.92V26.84H52.72H52.37Z" fill="#6D6E71"/>
    <path d="M55.0601 30.09L55.7701 27.74L56.4701 30.09H55.0601ZM55.9101 26.83H55.4901L53.8201 32.01H54.4901L54.8901 30.66H56.6401L57.0501 32.01H57.7201L56.0501 26.83H55.9101Z" fill="#6D6E71"/>
    <path d="M62.7499 31.46H61.3599V26.84H60.7099V31.46H59.2999V26.84H58.6499V32.02H63.3999V26.84H62.7499V31.46Z" fill="#6D6E71"/>
    <path d="M65.42 30.83V26.84H64.77V32.02H65.42L67.44 28.02V32.02H68.09V26.84H67.44L65.42 30.83Z" fill="#6D6E71"/>
    <path d="M72.1699 29.06H70.0899V26.84H69.4299V32.02H70.0899V29.62H72.1699V32.02H72.8199V26.84H72.1699V29.06Z" fill="#6D6E71"/>
    <path d="M76.8499 29.87C76.8558 30.1186 76.8323 30.367 76.7799 30.61C76.7493 30.792 76.6812 30.9657 76.5799 31.12C76.4906 31.2457 76.3699 31.3457 76.2299 31.41C75.935 31.5301 75.6048 31.5301 75.3099 31.41C75.1725 31.3415 75.0528 31.2423 74.9599 31.12C74.8557 30.9651 74.7811 30.7922 74.7399 30.61C74.6874 30.367 74.6639 30.1186 74.6699 29.87V28.97C74.6653 28.7248 74.6887 28.4799 74.7399 28.24C74.7828 28.0616 74.8573 27.8922 74.9599 27.74C75.048 27.6171 75.1647 27.5176 75.2999 27.45C75.446 27.384 75.6045 27.3499 75.7649 27.3499C75.9252 27.3499 76.0837 27.384 76.2299 27.45C76.3671 27.5146 76.4845 27.6148 76.5699 27.74C76.6689 27.8929 76.74 28.0622 76.7799 28.24C76.8318 28.4831 76.8553 28.7315 76.8499 28.98V29.87ZM77.0299 27.32C76.8868 27.1339 76.6971 26.989 76.4799 26.9C76.0214 26.7138 75.5084 26.7138 75.0499 26.9C74.8343 26.9918 74.6452 27.1362 74.4999 27.32C74.3331 27.5224 74.2104 27.7574 74.1399 28.01C74.0519 28.3358 74.0115 28.6726 74.0199 29.01V29.91C74.0117 30.2474 74.0522 30.5842 74.1399 30.91C74.2189 31.1592 74.3407 31.3927 74.4999 31.6C74.6505 31.7758 74.8384 31.9158 75.0499 32.01C75.5084 32.1962 76.0214 32.1962 76.4799 32.01C76.6944 31.9211 76.8834 31.7802 77.0299 31.6C77.1904 31.395 77.3092 31.1606 77.3799 30.91C77.4676 30.5842 77.508 30.2474 77.4999 29.91V29.01C77.5083 28.6726 77.4679 28.3358 77.3799 28.01C77.3126 27.7581 77.1934 27.5231 77.0299 27.32Z" fill="#6D6E71"/>
    <path d="M79.24 28.24C79.2741 28.059 79.342 27.886 79.44 27.73C79.522 27.5943 79.6396 27.4837 79.78 27.41C79.9304 27.3288 80.0991 27.2875 80.27 27.29C80.4543 27.2803 80.6378 27.3218 80.8 27.41C80.9385 27.5052 81.0434 27.6417 81.1 27.8C81.1769 28.012 81.2207 28.2346 81.23 28.46H81.88C81.88 28.135 81.8082 27.8141 81.67 27.52C81.5537 27.2733 81.3655 27.0676 81.13 26.93C80.8653 26.7905 80.5691 26.7216 80.27 26.73C80.0186 26.7254 79.7692 26.7766 79.54 26.88C79.3225 26.9824 79.131 27.1329 78.98 27.32C78.8231 27.5258 78.7076 27.7602 78.64 28.01C78.5569 28.3027 78.5165 28.6058 78.52 28.91V29.91C78.5165 30.2142 78.5569 30.5173 78.64 30.81C78.7076 31.0598 78.8231 31.2942 78.98 31.5C79.1199 31.686 79.3014 31.8367 79.51 31.94C79.7293 32.0412 79.9684 32.0925 80.21 32.09C80.5252 32.0995 80.8378 32.0308 81.12 31.89C81.3591 31.7494 81.5506 31.5404 81.67 31.29C81.8037 31.0014 81.8752 30.688 81.88 30.37H81.24C81.2291 30.5993 81.1818 30.8255 81.1 31.04C81.0459 31.1999 80.9358 31.3348 80.79 31.42C80.6124 31.5044 80.4162 31.5422 80.22 31.53C80.0552 31.5389 79.8915 31.4991 79.7492 31.4155C79.6069 31.3319 79.4924 31.2082 79.42 31.06C79.3353 30.8962 79.2747 30.7211 79.24 30.54C79.1988 30.3292 79.1787 30.1148 79.18 29.9V28.9C79.1781 28.6785 79.1982 28.4575 79.24 28.24Z" fill="#6D6E71"/>
    <path d="M83.85 26.84H82.49V27.4H83.85V32.02H84.5V27.4H85.86V26.84H84.5H83.85Z" fill="#6D6E71"/>
    <path d="M89.17 28.94C89.1175 29.0842 89.0191 29.2072 88.89 29.29C88.7332 29.3834 88.5523 29.4286 88.37 29.42H87.37V27.42H88.37C88.5549 27.4127 88.7373 27.4653 88.89 27.57C89.0203 27.6647 89.1181 27.7975 89.17 27.95C89.2348 28.1088 89.2687 28.2785 89.27 28.45C89.2695 28.6281 89.2356 28.8045 89.17 28.97M89.17 27.06C88.9086 26.9213 88.6158 26.8524 88.32 26.86H86.72V32.04H87.37V30.04H88.37C88.6636 30.0487 88.9551 29.987 89.22 29.86C89.4453 29.7385 89.627 29.5497 89.74 29.32C89.867 29.0551 89.9287 28.7636 89.92 28.47C89.9254 28.1863 89.8638 27.9053 89.74 27.65C89.6219 27.4187 89.4419 27.2248 89.22 27.09" fill="#6D6E71"/>
    <path d="M93.51 29.87C93.516 30.1186 93.4925 30.367 93.44 30.61C93.4064 30.7928 93.3349 30.9666 93.23 31.12C93.147 31.2474 93.0289 31.3481 92.89 31.41C92.7416 31.4732 92.5813 31.5039 92.42 31.5C92.2653 31.5032 92.1117 31.4725 91.97 31.41C91.83 31.3457 91.7093 31.2457 91.62 31.12C91.5158 30.9651 91.4412 30.7922 91.4 30.61C91.3476 30.367 91.3241 30.1186 91.33 29.87V28.97C91.3246 28.7215 91.3481 28.4731 91.4 28.23C91.443 28.0516 91.5175 27.8822 91.62 27.73C91.7081 27.6071 91.8248 27.5076 91.96 27.44C92.1062 27.374 92.2647 27.3399 92.425 27.3399C92.5854 27.3399 92.7439 27.374 92.89 27.44C93.0272 27.5046 93.1446 27.6048 93.23 27.73C93.3291 27.8829 93.4002 28.0522 93.44 28.23C93.4919 28.4731 93.5154 28.7215 93.51 28.97V29.87ZM93.69 27.32C93.547 27.1339 93.3572 26.989 93.14 26.9C92.6816 26.7138 92.1685 26.7138 91.71 26.9C91.4945 26.9918 91.3053 27.1362 91.16 27.32C90.9932 27.5224 90.8706 27.7574 90.8 28.01C90.712 28.3358 90.6716 28.6726 90.68 29.01V29.91C90.6719 30.2474 90.7123 30.5842 90.8 30.91C90.879 31.1592 91.0009 31.3927 91.16 31.6C91.3107 31.7758 91.4986 31.9158 91.71 32.01C92.1685 32.1962 92.6816 32.1962 93.14 32.01C93.3545 31.9211 93.5435 31.7802 93.69 31.6C93.8505 31.395 93.9694 31.1606 94.04 30.91C94.1278 30.5842 94.1682 30.2474 94.16 29.91V29.01C94.1685 28.6726 94.128 28.3358 94.04 28.01C93.9728 27.7581 93.8535 27.5231 93.69 27.32Z" fill="#6D6E71"/>
    <path d="M95.86 29.62H97.69V29.06H95.86V27.4H97.95V26.84H95.86H95.74H95.2V32.02H95.74H95.86H97.99V31.46H95.86V29.62Z" fill="#6D6E71"/>
    <path d="M101.74 29.06H99.66V26.84H99.01V32.02H99.66V29.62H101.74V32.02H102.4V26.84H101.74V29.06Z" fill="#6D6E71"/>
    <path d="M104.39 30.83V26.84H103.74V32.02H104.39L106.41 28.02V32.02H107.06V26.84H106.41L104.39 30.83Z" fill="#6D6E71"/>
    <path d="M109.71 29.43C109.531 29.4373 109.354 29.3921 109.2 29.3C109.069 29.2055 108.965 29.0778 108.9 28.93C108.829 28.7589 108.795 28.575 108.8 28.39C108.786 28.1284 108.864 27.8701 109.02 27.66C109.106 27.5666 109.211 27.4938 109.329 27.4471C109.447 27.4003 109.574 27.3808 109.7 27.39H110.46V29.39L109.71 29.43ZM109.71 26.83C109.423 26.8222 109.138 26.8839 108.88 27.01C108.652 27.1297 108.464 27.3141 108.34 27.54C108.21 27.8041 108.144 28.0956 108.15 28.39C108.14 28.7161 108.231 29.0373 108.41 29.31C108.562 29.5184 108.765 29.6837 109 29.79L108 32.01H108.7L109.59 30.01H110.49V32.01H111.14V26.83H109.71Z" fill="#6D6E71"/>
  </symbol>

  <symbol id="tg" viewBox="0 0 24 24">
    <path d="M21.3599 4.63C21.3599 4.42 21.2099 4.37 21.0799 4.33C20.8416 4.26028 20.5883 4.26028 20.3499 4.33C20.3499 4.33 3.83994 10.31 2.88994 11C2.68994 11.13 2.61994 11.22 2.58994 11.31C2.54552 11.4453 2.55632 11.5926 2.62 11.72C2.68367 11.8473 2.79507 11.9444 2.92994 11.99L7.17994 13.39C7.25532 13.4099 7.33457 13.4099 7.40994 13.39C8.40994 12.78 17.1399 7.2 17.6499 7.02H17.7599C17.5699 7.74 9.94994 14.5 9.94994 14.5L9.55994 18.75C9.55994 18.75 9.39994 20.05 10.6899 18.75C11.5999 17.82 12.4699 17.06 12.9199 16.68C14.4099 17.68 15.9199 18.82 16.6299 19.41C16.8673 19.628 17.1777 19.7493 17.4999 19.75C18.1399 19.75 18.3299 19 18.3299 19C18.3299 19 21.3299 6.83 21.4299 5.2V4.79C21.4108 4.73491 21.3874 4.68141 21.3599 4.63Z"/>
  </symbol>

  <symbol id="search" viewBox="0 0 18 18">
    <path d="M17.71 16.29L13.46 12C14.6092 10.4809 15.1392 8.58226 14.9428 6.68755C14.7464 4.79284 13.8383 3.04327 12.4018 1.7922C10.9654 0.541126 9.10775 -0.118209 7.20401 -0.0526376C5.30028 0.0129333 3.49237 0.798523 2.14543 2.14546C0.798492 3.4924 0.0129028 5.30031 -0.0526681 7.20404C-0.118239 9.10778 0.541095 10.9655 1.79217 12.4019C3.04324 13.8383 4.79281 14.7464 6.68752 14.9428C8.58223 15.1392 10.4809 14.6093 12 13.46L16.25 17.71C16.3481 17.8076 16.4654 17.8838 16.5945 17.9337C16.7236 17.9836 16.8617 18.0062 17 18C17.1316 18.0008 17.262 17.9755 17.3839 17.9258C17.5057 17.876 17.6165 17.8027 17.71 17.71C17.8962 17.5226 18.0008 17.2692 18.0008 17.005C18.0008 16.7408 17.8962 16.4874 17.71 16.3V16.29ZM1.99997 7.5C1.99997 6.4122 2.32254 5.34884 2.92689 4.44437C3.53124 3.53989 4.39022 2.83495 5.39521 2.41866C6.40021 2.00238 7.50607 1.89346 8.57297 2.10568C9.63986 2.3179 10.6199 2.84173 11.3891 3.61091C12.1582 4.3801 12.6821 5.36011 12.8943 6.427C13.1065 7.4939 12.9976 8.59977 12.5813 9.60476C12.165 10.6098 11.4601 11.4687 10.5556 12.0731C9.65114 12.6774 8.58777 13 7.49997 13C6.04209 12.9974 4.64468 12.417 3.6138 11.3862C2.58293 10.3553 2.00261 8.95788 1.99997 7.5Z"/>
  </symbol>

  <symbol id="cart" viewBox="0 0 24 24" fill="none">
    <path d="M2.23999 2H3.53999C3.69479 1.96582 3.85519 1.96582 4.00999 2C4.0968 2.03704 4.17011 2.09988 4.21999 2.18C4.29027 2.3238 4.33107 2.4802 4.33999 2.64L4.80999 6M4.80999 6L5.85999 13.73C5.87759 14.3672 6.02742 14.9938 6.29999 15.57C6.50186 15.8994 6.79797 16.1607 7.14999 16.32C7.74924 16.499 8.37749 16.5601 8.99999 16.5H17.56C18.1653 16.5593 18.7765 16.5016 19.36 16.33C19.6996 16.1792 19.9904 15.9368 20.2 15.63C20.4805 15.0925 20.6505 14.5043 20.7 13.9L22.06 7C22.1112 6.79651 22.1112 6.58349 22.06 6.38C22.043 6.32396 22.0147 6.272 21.9768 6.22729C21.939 6.18258 21.8924 6.14607 21.84 6.12C21.662 6.03603 21.4668 5.99493 21.27 6H4.80999ZM10.24 21C10.24 21.1978 10.1813 21.3911 10.0715 21.5556C9.96158 21.72 9.8054 21.8482 9.62267 21.9239C9.43995 21.9996 9.23888 22.0194 9.0449 21.9808C8.85092 21.9422 8.67274 21.847 8.53288 21.7071C8.39303 21.5673 8.29779 21.3891 8.2592 21.1951C8.22062 21.0011 8.24042 20.8 8.31611 20.6173C8.3918 20.4346 8.51997 20.2784 8.68442 20.1685C8.84887 20.0586 9.04221 20 9.23999 20C9.50521 20 9.75956 20.1054 9.9471 20.2929C10.1346 20.4804 10.24 20.7348 10.24 21ZM18.24 21C18.24 21.1978 18.1813 21.3911 18.0715 21.5556C17.9616 21.72 17.8054 21.8482 17.6227 21.9239C17.4399 21.9996 17.2389 22.0194 17.0449 21.9808C16.8509 21.9422 16.6727 21.847 16.5329 21.7071C16.393 21.5673 16.2978 21.3891 16.2592 21.1951C16.2206 21.0011 16.2404 20.8 16.3161 20.6173C16.3918 20.4346 16.52 20.2784 16.6844 20.1685C16.8489 20.0586 17.0422 20 17.24 20C17.5052 20 17.7596 20.1054 17.9471 20.2929C18.1346 20.4804 18.24 20.7348 18.24 21Z" stroke-width="2" stroke-linecap="round" stroke-linejoin="round"/>
  </symbol>

  <symbol id="icon1" viewBox="0 0 80 80" fill="none">
    <path d="M42.59 79H5C3.93913 79 2.92172 78.5786 2.17157 77.8284C1.42143 77.0783 1 76.0609 1 75V37.41C1.00083 37.2122 1.06028 37.0191 1.17085 36.8552C1.28141 36.6912 1.43812 36.5636 1.62115 36.4887C1.80418 36.4138 2.00532 36.3948 2.19913 36.4342C2.39295 36.4736 2.57073 36.5696 2.71 36.71L43.29 77.29C43.4304 77.4293 43.5264 77.607 43.5658 77.8009C43.6052 77.9947 43.5862 78.1958 43.5113 78.3788C43.4363 78.5619 43.3088 78.7186 43.1448 78.8291C42.9809 78.9397 42.7878 78.9992 42.59 79Z" stroke="#FFFFFF" stroke-width="2" stroke-miterlimit="10"/>
    <path d="M9 55V71H25L9 55Z" stroke="#FFFFFF" stroke-width="2" stroke-miterlimit="10"/>
    <path d="M4 73H1" stroke="#FFFFFF" stroke-width="2" stroke-miterlimit="10"/>
    <path d="M4 69H1" stroke="#FFFFFF" stroke-width="2" stroke-miterlimit="10"/>
    <path d="M4 65H1" stroke="#FFFFFF" stroke-width="2" stroke-miterlimit="10"/>
    <path d="M4 61H1" stroke="#FFFFFF" stroke-width="2" stroke-miterlimit="10"/>
    <path d="M4 57H1" stroke="#FFFFFF" stroke-width="2" stroke-miterlimit="10"/>
    <path d="M4 53H1" stroke="#FFFFFF" stroke-width="2" stroke-miterlimit="10"/>
    <path d="M4 49H1" stroke="#FFFFFF" stroke-width="2" stroke-miterlimit="10"/>
    <path d="M4 45H1" stroke="#FFFFFF" stroke-width="2" stroke-miterlimit="10"/>
    <path d="M59 22C61.7614 22 64 19.7614 64 17C64 14.2386 61.7614 12 59 12C56.2386 12 54 14.2386 54 17C54 19.7614 56.2386 22 59 22Z" stroke="#FFFFFF" stroke-width="2" stroke-miterlimit="10"/>
    <path d="M59 22V34" stroke="#FFFFFF" stroke-width="2" stroke-miterlimit="10"/>
    <path d="M53 33V29.63C50.1281 28.2677 47.8052 25.9687 46.4134 23.1109C45.0216 20.2532 44.6437 17.0068 45.3419 13.9058C46.0401 10.8048 47.7728 8.03364 50.2551 6.04812C52.7373 4.0626 55.8214 2.9809 59 2.9809C62.1787 2.9809 65.2627 4.0626 67.745 6.04812C70.2272 8.03364 71.9599 10.8048 72.6581 13.9058C73.3563 17.0068 72.9784 20.2532 71.5866 23.1109C70.1948 25.9687 67.872 28.2677 65 29.63V33" stroke="#FFFFFF" stroke-width="2" stroke-miterlimit="10"/>
    <path d="M65 33H53C51.8954 33 51 33.8954 51 35C51 36.1046 51.8954 37 53 37H65C66.1046 37 67 36.1046 67 35C67 33.8954 66.1046 33 65 33Z" stroke="#FFFFFF" stroke-width="2" stroke-miterlimit="10"/>
    <path d="M65 37H53C51.8954 37 51 37.8954 51 39C51 40.1046 51.8954 41 53 41H65C66.1046 41 67 40.1046 67 39C67 37.8954 66.1046 37 65 37Z" stroke="#FFFFFF" stroke-width="2" stroke-miterlimit="10"/>
    <path d="M79 1H75V5H79V1Z" stroke="#FFFFFF" stroke-width="2" stroke-miterlimit="10"/>
    <path d="M43 1H39V5H43V1Z" stroke="#FFFFFF" stroke-width="2" stroke-miterlimit="10"/>
    <path d="M43 3H75" stroke="#FFFFFF" stroke-width="2" stroke-miterlimit="10"/>
    <path d="M5 39V21C5 20.4696 5.21071 19.9609 5.58579 19.5858C5.96086 19.2107 6.46957 19 7 19H45" stroke="#FFFFFF" stroke-width="2" stroke-miterlimit="10"/>
    <path d="M40 74H77C77.5304 74 78.0391 73.7893 78.4142 73.4142C78.7893 73.0391 79 72.5304 79 72V21C79 20.4696 78.7893 19.9609 78.4142 19.5858C78.0391 19.2107 77.5304 19 77 19H73" stroke="#FFFFFF" stroke-width="2" stroke-miterlimit="10"/>
    <path d="M9 24C9.55228 24 10 23.5523 10 23C10 22.4477 9.55228 22 9 22C8.44772 22 8 22.4477 8 23C8 23.5523 8.44772 24 9 24Z" fill="#FFFFFF"/>
    <path d="M13 24C13.5523 24 14 23.5523 14 23C14 22.4477 13.5523 22 13 22C12.4477 22 12 22.4477 12 23C12 23.5523 12.4477 24 13 24Z" fill="#FFFFFF"/>
    <path d="M17 24C17.5523 24 18 23.5523 18 23C18 22.4477 17.5523 22 17 22C16.4477 22 16 22.4477 16 23C16 23.5523 16.4477 24 17 24Z" fill="#FFFFFF"/>
    <path d="M5 27H49" stroke="#FFFFFF" stroke-width="2" stroke-miterlimit="10"/>
    <path d="M69 27H78" stroke="#FFFFFF" stroke-width="2" stroke-miterlimit="10"/>
    <path d="M25 59H41V33H11V45" stroke="#FFFFFF" stroke-width="2" stroke-miterlimit="10"/>
    <path d="M46 47H74" stroke="#FFFFFF" stroke-width="2" stroke-miterlimit="10"/>
    <path d="M46 51H74" stroke="#FFFFFF" stroke-width="2" stroke-miterlimit="10"/>
    <path d="M46 55H74" stroke="#FFFFFF" stroke-width="2" stroke-miterlimit="10"/>
    <path d="M46 59H74" stroke="#FFFFFF" stroke-width="2" stroke-miterlimit="10"/>
  </symbol>

  <symbol id="icon2" viewBox="0 0 80 80" fill="none">
    <path d="M63 36V63" stroke="#FFFFFF" stroke-width="2" stroke-miterlimit="10"/>
    <path d="M69 36V63" stroke="#FFFFFF" stroke-width="2" stroke-miterlimit="10"/>
    <path d="M57 36V63" stroke="#FFFFFF" stroke-width="2" stroke-miterlimit="10"/>
    <path d="M27 57V65" stroke="#FFFFFF" stroke-width="2" stroke-miterlimit="10"/>
    <path d="M17 57V65" stroke="#FFFFFF" stroke-width="2" stroke-miterlimit="10"/>
    <path d="M73 63H53V69H73V63Z" stroke="#FFFFFF" stroke-width="2" stroke-miterlimit="10"/>
    <path d="M77 69H49V79H77V69Z" stroke="#FFFFFF" stroke-width="2" stroke-miterlimit="10"/>
    <path d="M33 65H11V71H33V65Z" stroke="#FFFFFF" stroke-width="2" stroke-miterlimit="10"/>
    <path d="M35 52V57H9V52" stroke="#FFFFFF" stroke-width="2" stroke-miterlimit="10"/>
    <path d="M35 47H9" stroke="#FFFFFF" stroke-width="2" stroke-miterlimit="10"/>
    <path d="M37 71H7V79H37V71Z" stroke="#FFFFFF" stroke-width="2" stroke-miterlimit="10"/>
    <path d="M63 25C67.4183 25 71 21.4183 71 17C71 12.5817 67.4183 9 63 9C58.5817 9 55 12.5817 55 17C55 21.4183 58.5817 25 63 25Z" stroke="#FFFFFF" stroke-width="2" stroke-miterlimit="10"/>
    <path d="M22 21C25.866 21 29 17.866 29 14C29 10.134 25.866 7 22 7C18.134 7 15 10.134 15 14C15 17.866 18.134 21 22 21Z" stroke="#FFFFFF" stroke-width="2" stroke-miterlimit="10"/>
    <path d="M22 15C22.5523 15 23 14.5523 23 14C23 13.4477 22.5523 13 22 13C21.4477 13 21 13.4477 21 14C21 14.5523 21.4477 15 22 15Z" stroke="#FFFFFF" stroke-width="2" stroke-miterlimit="10"/>
    <path d="M15 14L1 25V35L5 49H9V30L22 22L35 30V49H39L43 35V25L29 14" stroke="#FFFFFF" stroke-width="2" stroke-miterlimit="10"/>
    <path d="M22 7H49.9" stroke="#FFFFFF" stroke-width="2" stroke-miterlimit="10"/>
    <path d="M34 18H47" stroke="#FFFFFF" stroke-width="2" stroke-miterlimit="10"/>
    <path d="M77.18 8.56L71.92 3.29L69.6 5.21L67.53 4.35L67.08 1H59.68L59.38 4.16L57.3 5.02L54.5 2.87L49.29 8.09L51.4 10.65L50.55 12.72L47 13.2V20.56L50.36 20.88L51.22 22.95" stroke="#FFFFFF" stroke-width="2" stroke-miterlimit="10"/>
    <path d="M49.0901 25.72L54.3101 30.94L56.8501 28.85L58.9201 29.71L59.3601 33H66.7801L67.0801 29.9L69.1501 29.04L71.6701 30.96L76.9401 25.69L75.0501 23.4L75.9101 21.33L79.0001 20.92V13.46L76.0901 13.18L75.2301 11.1" stroke="#FFFFFF" stroke-width="2" stroke-miterlimit="10"/>
    <path d="M9 41H14L15 39H19L20 41H24L25 39H29L30 41H35" stroke="#FFFFFF" stroke-width="2" stroke-miterlimit="10"/>
  </symbol>
  
  <symbol id="icon3" viewBox="0 0 80 80" fill="none">
    <path d="M15 75H7V79H15V75Z" stroke="#FFFFFF" stroke-width="2" stroke-miterlimit="10"/>
    <path d="M73 75H65V79H73V75Z" stroke="#FFFFFF" stroke-width="2" stroke-miterlimit="10"/>
    <path d="M79 71H1V75H79V71Z" stroke="#FFFFFF" stroke-width="2" stroke-miterlimit="10"/>
    <path d="M39 37H5V71H39V37Z" stroke="#FFFFFF" stroke-width="2" stroke-miterlimit="10"/>
    <path d="M13 48C14.6569 48 16 46.6569 16 45C16 43.3431 14.6569 42 13 42C11.3431 42 10 43.3431 10 45C10 46.6569 11.3431 48 13 48Z" stroke="#FFFFFF" stroke-width="2" stroke-miterlimit="10"/>
    <path d="M24 43H34" stroke="#FFFFFF" stroke-width="2" stroke-miterlimit="10"/>
    <path d="M24 47H34" stroke="#FFFFFF" stroke-width="2" stroke-miterlimit="10"/>
    <path d="M24 51H34" stroke="#FFFFFF" stroke-width="2" stroke-miterlimit="10"/>
    <path d="M73 37H39V71H73V37Z" stroke="#FFFFFF" stroke-width="2" stroke-miterlimit="10"/>
    <path d="M47 48C48.6569 48 50 46.6569 50 45C50 43.3431 48.6569 42 47 42C45.3431 42 44 43.3431 44 45C44 46.6569 45.3431 48 47 48Z" stroke="#FFFFFF" stroke-width="2" stroke-miterlimit="10"/>
    <path d="M58 43H68" stroke="#FFFFFF" stroke-width="2" stroke-miterlimit="10"/>
    <path d="M58 47H68" stroke="#FFFFFF" stroke-width="2" stroke-miterlimit="10"/>
    <path d="M58 51H68" stroke="#FFFFFF" stroke-width="2" stroke-miterlimit="10"/>
    <path d="M57 3H23V37H57V3Z" stroke="#FFFFFF" stroke-width="2" stroke-miterlimit="10"/>
    <path d="M31 14C32.6569 14 34 12.6569 34 11C34 9.34315 32.6569 8 31 8C29.3431 8 28 9.34315 28 11C28 12.6569 29.3431 14 31 14Z" stroke="#FFFFFF" stroke-width="2" stroke-miterlimit="10"/>
    <path d="M42 9H52" stroke="#FFFFFF" stroke-width="2" stroke-miterlimit="10"/>
    <path d="M42 13H52" stroke="#FFFFFF" stroke-width="2" stroke-miterlimit="10"/>
    <path d="M42 17H52" stroke="#FFFFFF" stroke-width="2" stroke-miterlimit="10"/>
  </symbol>

  <symbol id="icon4" viewBox="0 0 80 80" fill="none">
    <path d="M17.2399 72C14.8564 71.9213 12.5967 70.9192 10.9384 69.2052C9.28011 67.4913 8.35303 65.1999 8.35303 62.815C8.35303 60.4301 9.28011 58.1387 10.9384 56.4247C12.5967 54.7108 14.8564 53.7087 17.2399 53.63C17.8411 53.6383 18.4403 53.7019 19.0299 53.82L19.3499 53.89L54.7399 18.45L54.6699 18.12C54.5492 17.531 54.4889 16.9312 54.4899 16.33C54.4832 15.5643 54.5773 14.8011 54.7699 14.06C55.2649 12.0853 56.4058 10.3327 58.0111 9.08065C59.6164 7.82865 61.5941 7.1491 63.6299 7.14999C64.3884 7.15374 65.1437 7.24774 65.8799 7.42999C65.9193 7.43758 65.9547 7.45883 65.9799 7.48999C65.9993 7.50779 66.0148 7.52943 66.0254 7.55353C66.036 7.57763 66.0415 7.60367 66.0415 7.62999C66.0415 7.65632 66.036 7.68236 66.0254 7.70646C66.0148 7.73056 65.9993 7.7522 65.9799 7.76999L60.6299 13.12L62.1899 17.81L66.8799 19.37L72.2299 14H72.3199C72.3699 13.9932 72.4206 14.0047 72.4628 14.0322C72.5051 14.0597 72.536 14.1015 72.5499 14.15C72.8925 15.5005 72.9222 16.9114 72.6367 18.2751C72.3512 19.6388 71.758 20.9192 70.9024 22.0189C70.0468 23.1185 68.9514 24.0082 67.6998 24.6202C66.4481 25.2321 65.0732 25.5501 63.6799 25.55C63.0687 25.5433 62.4594 25.4797 61.8599 25.36L61.5299 25.29L26.1699 60.65L26.2299 60.98C26.3534 61.5687 26.4171 62.1684 26.4199 62.77C26.4252 63.9794 26.1917 65.1779 25.7328 66.2968C25.274 67.4158 24.5988 68.4332 23.7459 69.2906C22.8931 70.1481 21.8794 70.8288 20.763 71.2938C19.6465 71.7587 18.4493 71.9987 17.2399 72Z" stroke="#FFFFFF" stroke-width="2" stroke-miterlimit="10"/>
    <path d="M19.58 58.57H14.53L12 62.95L14.53 67.32H19.58L22.11 62.95L19.58 58.57Z" stroke="#FFFFFF" stroke-width="2" stroke-miterlimit="10"/>
    <path d="M23.6201 56.12L56.4101 23.33" stroke="#FFFFFF" stroke-width="2" stroke-miterlimit="10"/>
    <path d="M65.3401 65.34L52.3301 52.33" stroke="#FFFFFF" stroke-width="2" stroke-miterlimit="10"/>
    <path d="M68 62.67L54.99 49.66" stroke="#FFFFFF" stroke-width="2" stroke-miterlimit="10"/>
    <path d="M62.6699 68L49.6599 54.99" stroke="#FFFFFF" stroke-width="2" stroke-miterlimit="10"/>
    <path d="M39.25 52.7L41.06 54.52C41.2848 54.7388 41.5863 54.8608 41.9 54.86C42.054 54.8613 42.2067 54.8318 42.3492 54.7735C42.4917 54.7151 42.6211 54.6289 42.73 54.52L43.32 53.93C43.568 53.682 43.9043 53.5427 44.255 53.5427C44.6057 53.5427 44.942 53.682 45.19 53.93C45.438 54.178 45.5773 54.5143 45.5773 54.865C45.5773 55.2157 45.438 55.552 45.19 55.8L44.6 56.39C44.4905 56.4987 44.4037 56.6281 44.3444 56.7705C44.2851 56.913 44.2546 57.0657 44.2546 57.22C44.2546 57.3743 44.2851 57.527 44.3444 57.6695C44.4037 57.8119 44.4905 57.9413 44.6 58.05L56.6 70.05C57.4805 70.9358 58.5269 71.6394 59.6793 72.1208C60.8318 72.6022 62.0678 72.8519 63.3167 72.8556C64.5657 72.8593 65.8031 72.617 66.9584 72.1425C68.1137 71.6679 69.1642 70.9705 70.05 70.09C70.9358 69.2095 71.6394 68.1631 72.1208 67.0107C72.6022 65.8582 72.8519 64.6222 72.8556 63.3733C72.8593 62.1243 72.617 60.8869 72.1425 59.7316C71.6679 58.5763 70.9705 57.5258 70.09 56.64L70 56.58L58 44.58C57.7791 44.3614 57.4808 44.2388 57.17 44.2388C56.8592 44.2388 56.5609 44.3614 56.34 44.58L55.75 45.17C55.502 45.418 55.1657 45.5573 54.815 45.5573C54.4643 45.5573 54.128 45.418 53.88 45.17C53.632 44.922 53.4927 44.5857 53.4927 44.235C53.4927 43.8843 53.632 43.548 53.88 43.3L54.47 42.71C54.5798 42.6004 54.6668 42.4702 54.7262 42.327C54.7856 42.1837 54.8162 42.0301 54.8162 41.875C54.8162 41.7199 54.7856 41.5663 54.7262 41.423C54.6668 41.2798 54.5798 41.1496 54.47 41.04L52.7 39.25L39.25 52.7Z" stroke="#FFFFFF" stroke-width="2" stroke-miterlimit="10"/>
    <path d="M36.0001 32.5L16.1501 12.64L15.5501 10.23C15.5016 10.0594 15.391 9.91315 15.2401 9.81999L10.7101 7.23999C10.6136 7.18142 10.503 7.15031 10.3901 7.14999C10.2183 7.15292 10.0539 7.22081 9.93012 7.33999L7.35011 9.92999C7.24732 10.0288 7.17988 10.1587 7.15819 10.2997C7.13651 10.4407 7.16178 10.5848 7.23011 10.71L9.82011 15.24C9.86525 15.3146 9.92472 15.3795 9.99509 15.431C10.0655 15.4825 10.1453 15.5196 10.2301 15.54L12.6401 16.15L32.5001 36L36.0001 32.5Z" stroke="#FFFFFF" stroke-width="2" stroke-miterlimit="10"/>
  </symbol>

  <symbol id="chevron" viewBox="0 0 11 7">
    <path d="M5.49999 6.5C5.37387 6.50076 5.24885 6.47554 5.13208 6.42577C5.01532 6.37601 4.90912 6.30268 4.81958 6.21L0.986245 2.21C0.805787 2.0217 0.704407 1.7663 0.704407 1.5C0.704407 1.2337 0.805787 0.978306 0.986245 0.790002C1.1667 0.601698 1.41146 0.495911 1.66666 0.495911C1.92187 0.495911 2.16662 0.601698 2.34708 0.790002L5.49999 4.09L8.65291 0.790002C8.83337 0.601698 9.07812 0.495911 9.33333 0.495911C9.58853 0.495911 9.83329 0.601698 10.0137 0.790002C10.1942 0.978306 10.2956 1.2337 10.2956 1.5C10.2956 1.7663 10.1942 2.0217 10.0137 2.21L6.18041 6.21C6.09086 6.30268 5.98467 6.37601 5.86791 6.42577C5.75114 6.47554 5.62612 6.50076 5.49999 6.5Z"/>
  </symbol>

</svg>
