<?xml version="1.0" standalone="no"?>
<!DOCTYPE svg PUBLIC "-//W3C//DTD SVG 20010904//EN"
 "http://www.w3.org/TR/2001/REC-SVG-20010904/DTD/svg10.dtd">
<svg version="1.0" xmlns="http://www.w3.org/2000/svg"
 width="120.000000pt" height="120.000000pt" viewBox="0 0 120.000000 120.000000"
 preserveAspectRatio="xMidYMid meet">
<metadata>
Created by potrace 1.14, written by Peter Selinger 2001-2017
</metadata>
<g transform="translate(0.000000,120.000000) scale(0.100000,-0.100000)"
fill="#000000" stroke="none">
<path d="M437 1176 c-92 -27 -123 -48 -51 -35 153 29 313 1 422 -72 24 -16 62
-39 85 -50 132 -67 222 -176 288 -348 17 -43 18 -17 4 54 -24 114 -77 209
-164 295 -42 42 -103 89 -136 107 -137 72 -304 91 -448 49z"/>
<path d="M488 1125 c-2 -1 -30 -5 -63 -8 -97 -10 -108 -14 -144 -54 -50 -56
-108 -148 -130 -207 -23 -63 -41 -155 -31 -161 4 -2 18 16 31 41 33 64 123
152 205 198 182 104 225 119 347 120 58 1 65 3 50 14 -28 20 -142 51 -205 55
-32 2 -59 3 -60 2z"/>
<path d="M181 1022 c-127 -127 -184 -270 -176 -446 6 -161 62 -285 182 -403
74 -75 118 -102 59 -37 -43 47 -91 127 -124 206 -24 58 -27 76 -29 232 -4 189
5 243 58 347 17 34 35 67 40 73 5 6 19 25 32 41 12 17 29 38 36 48 31 40 -6
12 -78 -61z"/>
<path d="M615 1020 c-22 -4 -51 -13 -65 -19 -21 -8 -18 -9 23 -7 156 10 302
-73 379 -215 23 -41 28 -47 24 -24 -21 97 -86 215 -141 251 -29 19 -160 28
-220 14z"/>
<path d="M944 918 c51 -93 66 -165 66 -314 0 -154 -17 -233 -67 -324 l-37 -65
30 19 c60 38 135 131 182 225 61 122 62 155 6 271 -49 101 -104 173 -168 218
l-47 34 35 -64z"/>
<path d="M241 810 c-54 -56 -112 -164 -113 -210 -1 -44 55 -149 110 -208 55
-59 75 -68 39 -19 -66 91 -88 221 -57 336 5 20 25 62 44 94 19 31 32 57 30 57
-3 0 -27 -23 -53 -50z"/>
<path d="M1190 556 c0 -30 -81 -183 -128 -242 -48 -59 -138 -128 -181 -139
-13 -3 -40 -19 -60 -34 -20 -16 -67 -41 -106 -57 -64 -26 -81 -28 -195 -29
-69 0 -141 3 -160 7 l-35 7 40 -19 c111 -52 253 -63 379 -31 235 61 403 242
446 480 6 35 9 66 6 69 -3 3 -6 -2 -6 -12z"/>
<path d="M121 463 c15 -108 75 -231 156 -320 33 -36 46 -43 100 -53 111 -19
222 -14 304 14 39 14 76 29 80 33 4 4 -18 8 -49 7 -71 -1 -159 19 -221 50
-191 96 -285 170 -343 273 -16 29 -31 53 -32 53 -2 0 1 -26 5 -57z"/>
<path d="M946 415 c-71 -136 -218 -218 -373 -209 l-48 3 40 -15 c51 -19 151
-28 210 -20 61 10 112 56 153 138 26 54 56 148 49 155 -2 1 -15 -22 -31 -52z"/>
</g>
</svg>
